<svg id="a09c848c-d5c4-49aa-a19e-91c8e1064310" xmlns="http://www.w3.org/2000/svg" xmlns:xlink="http://www.w3.org/1999/xlink" viewBox="0 0 971.35 546.24"><defs><style>.cls-1{fill:#75d175;}.cls-1,.cls-13,.cls-14,.cls-17,.cls-19,.cls-7,.cls-8,.cls-9{isolation:isolate;}.cls-14,.cls-2{fill:#6c63ff;}.cls-3{fill:#11992b;}.cls-4{fill:#444053;}.cls-5{fill:#ddeddd;}.cls-6{fill:#2e6623;}.cls-7{fill:#fa5959;}.cls-7,.cls-8,.cls-9{opacity:0.8;}.cls-8{fill:#fed253;}.cls-9{fill:#8ccf4d;}.cls-10,.cls-14{opacity:0.2;}.cls-11{fill:#a8e5ab;}.cls-12{fill:#1dbf28;}.cls-13{fill:#5edd5e;opacity:0.42;}.cls-15{fill:url(#linear-gradient);}.cls-16{fill:#65617d;}.cls-17,.cls-28{opacity:0.05;}.cls-18{fill:#3f3d56;}.cls-19,.cls-23{opacity:0.1;}.cls-20{fill:#ee8e9e;}.cls-21{fill:#e3e8f4;}.cls-22{fill:#565387;}.cls-24{fill:#fff;}.cls-25{fill:#55a551;}.cls-26{fill:url(#linear-gradient-2);}.cls-27{fill:#2d293d;}.cls-29{fill:#ffcdd3;}.cls-30{fill:#dce6f2;}.cls-31{fill:#575988;}.cls-32{fill:#656691;}.cls-33{fill:url(#linear-gradient-3);}.cls-34{fill:#4c4981;}.cls-35{fill:#ae6e79;}</style><linearGradient id="linear-gradient" x1="452.17" y1="-87.09" x2="452.17" y2="95.94" gradientTransform="matrix(1, 0, 0, -1, -36.6, 500.8)" gradientUnits="userSpaceOnUse"><stop offset="0" stop-color="gray" stop-opacity="0.25"/><stop offset="0.54" stop-color="gray" stop-opacity="0.12"/><stop offset="1" stop-color="gray" stop-opacity="0.1"/></linearGradient><linearGradient id="linear-gradient-2" x1="-281.3" y1="-38.29" x2="-281.3" y2="342.87" gradientTransform="matrix(1, -0.04, -0.04, -1, 1032.23, 539.6)" xlink:href="#linear-gradient"/><linearGradient id="linear-gradient-3" x1="219.78" y1="-91.27" x2="219.78" y2="257.77" xlink:href="#linear-gradient"/></defs><title>intro-img</title><path class="cls-1" d="M605.28,177.08c-61,.46-119.59-13.32-175.62-28.68s-111.61-32.62-171.42-39.66c-38.46-4.55-82.24-3.84-112.48,13.79-29.09,16.95-37.69,44.73-41.94,70.36-3.2,19.3-4.76,39.54,6.5,57.1,7.81,12.18,21.28,22.18,30.75,33.78,33,40.38,12.54,92.34-20.17,134.06-15.32,19.54-33.25,38.35-44.92,59s-16.53,44.06-5,64.31c11.45,20.08,37.53,34.54,65.58,44.35,57,20,123.42,23.88,188.13,25.15,143.22,2.79,286.81-5.72,430-14.23,53-3.15,106.23-6.32,158.17-14.79,28.85-4.69,58.56-11.57,79.09-26.37,26.07-18.8,31.62-49.25,12.94-71C973.55,447.85,890.25,441.48,867.84,402c-12.34-21.76-1.35-46.87,14.65-68,34.43-45.39,93.4-86.21,94.79-136.75,1-34.7-29.31-68.34-74.73-83.13-47.62-15.52-112.74-11-146.41,18.64C721.52,163.18,659.16,176.67,605.28,177.08Z" transform="translate(-44.58 -64.98)"/><path class="cls-2" d="M845.43,539.91s-10.6-7-21.1-2c0,0,3.23,6.23,16.53,5.64Z" transform="translate(-44.58 -64.98)"/><path class="cls-2" d="M846.73,540.29s3.22,12.27-4.86,20.62c0,0-4.86-5.06,0-17.45Z" transform="translate(-44.58 -64.98)"/><path class="cls-2" d="M859.94,528.5s-.78-10.44-24.36-7c0,0-.1,6.74,8.17,9.93S855.81,532,859.94,528.5Z" transform="translate(-44.58 -64.98)"/><path class="cls-2" d="M861.39,528.43s10,3.2,1.08,25.31c0,0-6.57-1.46-7.76-10.26S857.07,531.63,861.39,528.43Z" transform="translate(-44.58 -64.98)"/><path class="cls-2" d="M874.73,513.61s1.36-17.18-22.74-15.41c0,0-1.72,15.52,18.49,19.55Z" transform="translate(-44.58 -64.98)"/><path class="cls-3" d="M890.62,494.23s-3.3-19.48-27.38-13.68c0,0-.09,16.84,23.45,18.31Z" transform="translate(-44.58 -64.98)"/><path class="cls-3" d="M902.29,474.17s-5.53-19-29.39-13.29c0,0,5.68,17.06,27.81,16.79Z" transform="translate(-44.58 -64.98)"/><path class="cls-3" d="M913.35,450s-5.41-19.68-28.45-13.79c0,0,7.69,18.7,26.92,17.13Z" transform="translate(-44.58 -64.98)"/><path class="cls-3" d="M920.48,436s-4.16-24.07-25.64-18.75c-3.49-12.24,9.72,22,24,22.25Z" transform="translate(-44.58 -64.98)"/><path class="cls-3" d="M927.15,413.51s-5-24.27-26.73-17.24c0,0,8.53,22.93,25.19,20.56Z" transform="translate(-44.58 -64.98)"/><path class="cls-3" d="M931.29,392.59s-7.93-24.26-24.73-23.6c0,0,8.11,25.63,23.28,28.44Z" transform="translate(-44.58 -64.98)"/><path class="cls-3" d="M933.91,372.18s-8.62-29.2-22.3-26.95c0,0,6,22.33,21.81,31.51Z" transform="translate(-44.58 -64.98)"/><path class="cls-3" d="M935.45,347.81s-8.08-24.34-21.55-25.31c0,0,5.49,23.94,21.27,31.62Z" transform="translate(-44.58 -64.98)"/><path class="cls-3" d="M937,325.15s-10.08-24.36-19-24.91c0,0,4.38,24,18.1,28.91Z" transform="translate(-44.58 -64.98)"/><path class="cls-3" d="M938.16,304s-6.19-26.46-15.11-28.65c0,0,1.22,21.64,14.21,30.63Z" transform="translate(-44.58 -64.98)"/><path class="cls-3" d="M941.48,276.31S935,255.22,927.75,252c0,0,1.43,24.86,12.07,29.46Z" transform="translate(-44.58 -64.98)"/><path class="cls-3" d="M944.29,258.14,945.61,221S932.15,249,943.3,264.7Z" transform="translate(-44.58 -64.98)"/><path class="cls-3" d="M954.72,221.19s9.7-27.16,12.07-28.67c0,0-19.06,17.62-17.19,40.28Z" transform="translate(-44.58 -64.98)"/><path class="cls-3" d="M875.4,513.49s17.08-2.24,16.57,21.92c0,0-15.44,2.5-20.48-17.46Z" transform="translate(-44.58 -64.98)"/><path class="cls-3" d="M891.48,493.57s19.75-.06,18.11,24.66c0,0-16.57,2.95-22-20Z" transform="translate(-44.58 -64.98)"/><path class="cls-3" d="M902.48,471.2s17.93-8.4,29.4,13.3c0,0-16.56,7-31-9.79Z" transform="translate(-44.58 -64.98)"/><path class="cls-3" d="M913.74,450.2s18.36-8.94,29.13,12.25c0,0-19.11,6.59-30.64-8.89Z" transform="translate(-44.58 -64.98)"/><path class="cls-3" d="M920.23,431.94s17.67-16.87,31.77.19c0,0-18,13.88-32.58,3.57Z" transform="translate(-44.58 -64.98)"/><path class="cls-3" d="M926.15,408.37s17.77-17.24,31.76.79c0,0-19.95,14.16-32.39,2.83Z" transform="translate(-44.58 -64.98)"/><path class="cls-3" d="M929.48,391.9s13.68-21.55,29.8-16.73c7.28-11.7-21.48,22.34-29.66,21.8Z" transform="translate(-44.58 -64.98)"/><path class="cls-3" d="M933.51,372.05c5.22-10.28,8.57-29,26.84-22.42,0,0-9.94,20.87-27.19,27Z" transform="translate(-44.58 -64.98)"/><path class="cls-3" d="M934.46,346.42s14.18-21.36,27.46-18.76c0,0-11.59,21.66-28.83,24.94Z" transform="translate(-44.58 -64.98)"/><path class="cls-3" d="M935.54,324.63s11-24,19.93-24.14c2.9-13.1-8.2,24.72-19.19,28.2Z" transform="translate(-44.58 -64.98)"/><path class="cls-3" d="M937.72,303.45s12.21-24.28,21.39-24.32c0,0-6.25,20.75-21,26.45Z" transform="translate(-44.58 -64.98)"/><path class="cls-3" d="M939.55,277.8s9.14-20.09,16.71-22.36c0,0-4.57,24.48-15.7,27.69Z" transform="translate(-44.58 -64.98)"/><path class="cls-3" d="M945.38,257.44l20.42-31.11c2.21-13-7.44,31.47-23.39,37.07Z" transform="translate(-44.58 -64.98)"/><path class="cls-3" d="M959.4,223.69s23.74-16.38,24.59-19c0,0-12.07,22.95-34.48,27Z" transform="translate(-44.58 -64.98)"/><path class="cls-3" d="M960.82,216.32s27.25-26.19,34.21-26.17c-6.51.3-16-11.45-34.87,24.78Z" transform="translate(-44.58 -64.98)"/><path class="cls-4" d="M939.82,281.69l1,.13c5.12-40.09,12.59-63.8,21-66.7l-.33-1C952.56,217.27,945.06,240.62,939.82,281.69Z" transform="translate(-44.58 -64.98)"/><path class="cls-4" d="M932.29,377.52l1.5.13c.31-3.74.56-7.58.72-11.39,1.43-33.17,3.65-68.2,6.57-91l-.86,3.49c-2.93,22.88-5.77,54.27-7.2,87.49C932.86,370,932.6,373.81,932.29,377.52Z" transform="translate(-44.58 -64.98)"/><path class="cls-4" d="M817.44,559c.27-.11,26.67-11.9,54.08-40a217.65,217.65,0,0,0,39.52-56c12.67-25.8,20.39-57.5,23-88.3l-1.57.73c-5.81,69.14-37.29,116.38-62.32,142.11C843,545.33,816.9,557,816.64,557.11Z" transform="translate(-44.58 -64.98)"/><path class="cls-5" d="M880.67,91.87V538.78c0,13.28-12.82,24.13-28.65,24.13H245.68c-15.83,0-28.65-10.81-28.65-24.13V91.87C217,78.56,229.85,65,245.68,65L852,66.46C867.81,66.46,880.67,78.6,880.67,91.87Z" transform="translate(-44.58 -64.98)"/><path class="cls-6" d="M880.67,92V112.7H217V92a27,27,0,0,1,27-27H853.65A27,27,0,0,1,880.67,92Z" transform="translate(-44.58 -64.98)"/><circle class="cls-7" cx="204.6" cy="23.85" r="9.55"/><circle class="cls-8" cx="232.38" cy="23.85" r="9.55"/><circle class="cls-9" cx="260.17" cy="23.85" r="9.55"/><g class="cls-10"><path class="cls-11" d="M607.87,228.6v48.28c0,1.44-2.7,2.58-6,2.58H474.49c-3.33,0-6-1.16-6-2.58V228.6c0-1.44,2.69-2.9,6-2.9H601.83C605.18,225.69,607.87,227.15,607.87,228.6Z" transform="translate(-44.58 -64.98)"/></g><rect class="cls-12" x="485.07" y="177.95" width="66.34" height="2.34"/><path class="cls-13" d="M496.09,237.79a15.73,15.73,0,0,0-8.68,28.85v-1a3.58,3.58,0,0,1,3.15-3.54,6.25,6.25,0,0,0,10.95,0,3.56,3.56,0,0,1,3.14,3.54v1.11a15.73,15.73,0,0,0-8.56-28.92Zm6.17,20a6.23,6.23,0,0,1-12.44,0,6.82,6.82,0,0,1,3.36-9.05l.22-.1a2.06,2.06,0,0,1,1.74-3.2h.15a2.07,2.07,0,0,0-1.93,2.06,2.1,2.1,0,0,0,.28,1h.06a2.94,2.94,0,0,1,0-.42,3.08,3.08,0,0,1,2.38-2.67h.14a2.07,2.07,0,0,0-1.58.93,2,2,0,0,1,1.14-.34,2.08,2.08,0,0,1,2.08,2.08.88.88,0,0,1,0,.23,6.84,6.84,0,0,1,5.07,6.6A7,7,0,0,1,502.26,257.74Z" transform="translate(-44.58 -64.98)"/><rect class="cls-14" x="485.07" y="183.65" width="66.34" height="2.34"/><rect class="cls-14" x="485.07" y="189.36" width="66.34" height="2.34"/><rect class="cls-14" x="485.07" y="195.07" width="66.34" height="2.34"/><g class="cls-10"><path class="cls-11" d="M458.38,323.14v48.28c0,1.43-2.69,2.58-6,2.58H325c-3.33,0-6-1.17-6-2.58V323.14c0-1.44,2.69-2.9,6-2.9H452.36C455.69,320.24,458.38,321.7,458.38,323.14Z" transform="translate(-44.58 -64.98)"/></g><rect class="cls-12" x="335.57" y="272.5" width="66.34" height="2.34"/><path class="cls-13" d="M346.6,332.33a15.73,15.73,0,0,0-8.68,28.86v-1.05a3.57,3.57,0,0,1,3.15-3.53,6.25,6.25,0,0,0,10.95,0,3.57,3.57,0,0,1,3.15,3.53v1.12a15.73,15.73,0,0,0-8.57-28.93Zm6.16,19.95a6.23,6.23,0,0,1-12.44,0,6.94,6.94,0,0,1-.61-2.84,6.85,6.85,0,0,1,4.19-6.31,2,2,0,0,1-.33-1.12,2.08,2.08,0,0,1,2.08-2.08h.15a2.07,2.07,0,0,0-1.93,2.21,2,2,0,0,0,.27.89h.07a2.8,2.8,0,0,1,0-.41,3.06,3.06,0,0,1,2.38-2.68h.08a2.12,2.12,0,0,0-1.59.93,2.08,2.08,0,0,1,3.22,1.75h0a.88.88,0,0,1,0,.23,6.83,6.83,0,0,1,4.45,9.48Z" transform="translate(-44.58 -64.98)"/><rect class="cls-14" x="335.57" y="278.2" width="66.34" height="2.34"/><rect class="cls-14" x="335.57" y="283.91" width="66.34" height="2.34"/><rect class="cls-14" x="335.57" y="289.62" width="66.34" height="2.34"/><g class="cls-10"><path class="cls-11" d="M424,170.05v48.28c0,1.43-2.69,2.58-6,2.58H290.63c-3.32,0-6-1.17-6-2.58V170.05c0-1.44,2.7-2.91,6-2.91H418C421.3,167.14,424,168.61,424,170.05Z" transform="translate(-44.58 -64.98)"/></g><rect class="cls-12" x="301.18" y="119.4" width="66.34" height="2.34"/><rect class="cls-14" x="301.18" y="125.11" width="66.34" height="2.34"/><rect class="cls-14" x="301.18" y="130.82" width="66.34" height="2.34"/><rect class="cls-14" x="301.18" y="136.52" width="66.34" height="2.34"/><path class="cls-13" d="M312.18,179.24a15.74,15.74,0,0,0-8.62,28.86v-2.66a3.59,3.59,0,0,1,3.15-3.55,6.23,6.23,0,0,0,8.47,2.48,6.17,6.17,0,0,0,2.48-2.48,3.58,3.58,0,0,1,3.14,3.55v2.72a15.73,15.73,0,0,0-8.62-28.92Zm6.9,19.21a.75.75,0,0,1-.21.26.82.82,0,0,1-.45.16h-.32A6.25,6.25,0,1,1,306.68,194l-.07,0a2.08,2.08,0,0,1,.21-2.89,4,4,0,0,1,1.29-.47,5.81,5.81,0,0,0,3.28-2.51,7.53,7.53,0,0,1,0,.95,1.38,1.38,0,0,1,2-.08h0a4.94,4.94,0,0,0,.56.64,1.94,1.94,0,0,0,.7.2l1.57.19a3.06,3.06,0,0,1,1.79.65,2.8,2.8,0,0,1,.59,1.05,16.16,16.16,0,0,1,1,3.32,5.31,5.31,0,0,1-.48,3.39Z" transform="translate(-44.58 -64.98)"/><g class="cls-10"><path class="cls-11" d="M642.67,398.43V446.7c0,1.44-2.69,2.59-6,2.59H509.28c-3.32,0-6-1.17-6-2.59V398.43c0-1.44,2.69-2.9,6-2.9H636.65C640,395.49,642.67,396.94,642.67,398.43Z" transform="translate(-44.58 -64.98)"/></g><rect class="cls-12" x="519.86" y="347.74" width="66.34" height="2.34"/><rect class="cls-14" x="519.86" y="353.44" width="66.34" height="2.34"/><rect class="cls-14" x="519.86" y="359.16" width="66.34" height="2.34"/><rect class="cls-14" x="519.86" y="364.86" width="66.34" height="2.34"/><path class="cls-13" d="M530.88,407.58a15.73,15.73,0,0,0-8.67,28.85v-2.66a3.56,3.56,0,0,1,3.14-3.53,6.25,6.25,0,0,0,10.95,0,3.57,3.57,0,0,1,3.15,3.53v2.73a15.73,15.73,0,0,0-8.57-28.92Zm6.89,19.2a.9.9,0,0,1-.2.27.88.88,0,0,1-.46.16h-.33a6.24,6.24,0,1,1-11.4-4.84h-.07a2.08,2.08,0,0,1,.21-2.89,4.18,4.18,0,0,1,1.29-.48,5.78,5.78,0,0,0,3.28-2.5,7.53,7.53,0,0,1,0,.95,1.39,1.39,0,0,1,2-.08h0a3.72,3.72,0,0,0,.56.63,1.68,1.68,0,0,0,.7.21l1.57.2a2.24,2.24,0,0,1,2.38,1.7,15.86,15.86,0,0,1,1,3.31,5.25,5.25,0,0,1-.49,3.35Z" transform="translate(-44.58 -64.98)"/><path class="cls-15" d="M492.49,556.6l-18.91-27.43s-.36-6.79-1.6-8.38-.26-5.11-.26-5.11,1.32-1.94.18-2.12-.18-4.5-.18-4.5l-.09-6.89s1.06-6.63.18-8.21a2.58,2.58,0,0,1,.09-2.82s1.06-3.79,0-4.77-.81-6.89-.54-11.55-1.85-7.32-1.85-8-7-7.58-7-8.2-4.43-3.18-7.08-3.88-4-1.23-3.89-1.59-4.15-1.72-4.15-1.72-3.71-.27-5.13-2.11-5.74-2.4-5.87-2.41l-.07-.37-.08-.4c.33-.56.64-1.13.92-1.72a5.22,5.22,0,0,0,.24-.54,7.54,7.54,0,0,0,4.36-1.35,5.93,5.93,0,0,0,2.11-4.23,9.35,9.35,0,0,0-1-4.7c-.77-1.59-1.91-3.23-1.52-5,.17-.74.62-1.39.86-2.12a5.62,5.62,0,0,0-.64-4.18c-.66-1.27-1.59-2.4-2.34-3.64a14.16,14.16,0,0,1-1.87-5.18,7.84,7.84,0,0,0-.69-2.81,5.39,5.39,0,0,0-1.55-1.57,15.53,15.53,0,0,0-9.48-2.88c-2.41.09-4.81.74-7.2.44a25.42,25.42,0,0,1-4.2-1.09c-3-.86-6.38-1.24-9,.46s-3.61,5-5.36,7.64c-1.56,2.3-3.81,4.24-5,6.69v-.14a8.41,8.41,0,0,0-.65,1.78,12.56,12.56,0,0,0,.39,5.84,4,4,0,0,0,1.43,2.59c.86.56,2.07.43,3.09.61l-.12.5a20.44,20.44,0,0,0-.44,4.2A20.21,20.21,0,0,0,413,455.13v.54c0,.5,0,1-.08,1.51h0s-8.89-1.82-11.27-.58-7.08,2.2-7.76,2.9-2.47.18-4.07,4.31-1.76,8.38-3.79,10.35-3.09,3.26-3.19,4.68.27,1.72-.53,2.2-1.94,2.29-1.59,3a2.5,2.5,0,0,1-1,2.64,2.94,2.94,0,0,0-1.24,2.65s-.53,1.94-1.76,2.38-2,3.35-2,3.35l-4,4.61-7.95-8.79a3.35,3.35,0,0,0-4.72-.24l-3.91,3.47a7.75,7.75,0,0,0-3.91,2.33,10.08,10.08,0,0,0-2,3l-2.13,1.92a5.42,5.42,0,0,0-.56,6l5.1,5.63v0a8.9,8.9,0,0,0-4.92,2c-7.6,6.71-7.69,12.88-6.54,15.7S350,544.41,350,544.41a43,43,0,0,0,13.67,11.15h0l-.06.06c-.16.17-.32.36-.47.55l-.13.18a.66.66,0,0,0-.12.17l-.15.21-.11.17-.16.26-.09.16-.18.34a.64.64,0,0,0-.06.12s-.15.32-.22.48l-.08.18a.92.92,0,0,1-.14.35l-.07.23a1.26,1.26,0,0,1-.12.34l-.07.25c0,.12-.07.25-.11.39a.86.86,0,0,1-.06.23c0,.08-.09.43-.13.64a1,1,0,0,0,0,.25,2.33,2.33,0,0,0-.08.46.74.74,0,0,1,0,.32,2.46,2.46,0,0,0-.06.44c0,.15,0,.21,0,.33v1.68c-.18,10.34.43,11.81.43,11.81a5.72,5.72,0,0,0,4.69,3.52,5.9,5.9,0,0,0,1.51-.08c4.6-.8,15.38-2.64,19.18-1.94,2.29.43,6.52-.2,9.53-.77l.79-.16.55,1.73,1.73-.49,1.48.87.94.53c1.73,5.92,8.83,3.9,8.83,3.9l1.68,1,17.06.44a34.48,34.48,0,0,0,6,2.9,6.42,6.42,0,0,0,.87.19,39.6,39.6,0,0,0,4.75.08c1.31,0,2.31-.08,2.31-.08s-.17-4.63-.42-9.82a139.06,139.06,0,0,0,15.8-1.29c9.12-1.61,12.93-9.89,14.31-14.31a39,39,0,0,1,.87,5.49,39.93,39.93,0,0,0,1.41,4.76,16,16,0,0,0,1.95,3.53c6.71-2.29,2.64-5.73,1.23-7.23s1-2.74,1-2.74,1.87-1.24,1.73-2.38-.27-2.38,5.75-2.3S492.49,556.6,492.49,556.6Zm-93.34-56.31c.08.5.91,5.94,1.67,7.37a9.42,9.42,0,0,1,.2,2.9c-3.56-.28-7.27-.44-7.27-.44a.86.86,0,0,1,.19.46l-.56-.13-.82-.2,6.57-10Zm-13,20.69,6.16,1,.52.08a21.76,21.76,0,0,0-.32,2.91c0,.09.14.2.34.33a8.87,8.87,0,0,0-.12,1.45c.1.5,3,1.55,6.29,2.43,0,.17-.1.34-.14.5h0c-2.92-1.54-7.52-2.25-8.05-3.39s-16.17-6.61-16.17-6.61-.58-.31-1.56-.78l4.12.78,1.13-.12a60.46,60.46,0,0,0,7.8,1.43Z" transform="translate(-44.58 -64.98)"/><path class="cls-16" d="M472.37,560.43s-2.46,14.81-14.9,17-54,1.73-54,1.73-23.74-3.45-32.33-23.48-14.11-28-6.75-28.39,47.05,13.41,49.33,13.58S474.56,510.41,472.37,560.43Z" transform="translate(-44.58 -64.98)"/><path class="cls-17" d="M472.37,560.43s-2.46,14.81-14.9,17-54,1.73-54,1.73-23.74-3.45-32.33-23.48-14.11-28-6.75-28.39,47.05,13.41,49.33,13.58S474.56,510.41,472.37,560.43Z" transform="translate(-44.58 -64.98)"/><path class="cls-18" d="M361,576.87a5.71,5.71,0,0,0,4.63,3.54,6.28,6.28,0,0,0,1.5-.09c4.55-.78,15.24-2.59,19-1.92,2.27.42,6.46-.21,9.48-.77,2-.37,3.45-.72,3.45-.72s-3.5-11.66-3.94-12-15.8-9.59-15.8-9.59l-12.15-.86h0a6.36,6.36,0,0,0-4.11,2.42c-1.28,1.55-2.39,4.09-2.46,8.27C360.4,575.41,361,576.87,361,576.87Z" transform="translate(-44.58 -64.98)"/><path class="cls-17" d="M361,576.87a5.71,5.71,0,0,0,4.63,3.54,50.45,50.45,0,0,1-3.29-4.81l.06-8.5a15,15,0,0,1,4.78-12.64h0s-6.39.44-6.57,10.69S361,576.87,361,576.87Z" transform="translate(-44.58 -64.98)"/><path class="cls-19" d="M413.67,558.33l11.3-8.85L442.76,532l-4.82-.22c-.72.46-2.74,1.91-2.82,3.67-.09,2.13-4.8.14-7.26,1.37s-14.45,16.58-16.54,16.49-3.77-1.07-4.64.42a.61.61,0,0,1-.07.1Z" transform="translate(-44.58 -64.98)"/><path class="cls-19" d="M363,556.9l1.23.56c8.62,3.68,19.18,11.39,20,12.79.49.86,6.63,4.59,11.37,7.38,2-.37,3.45-.72,3.45-.72s-3.5-11.66-3.94-12-15.79-9.59-15.79-9.59l-12.15-.86h0A6.39,6.39,0,0,0,363,556.9Z" transform="translate(-44.58 -64.98)"/><path class="cls-16" d="M339.2,531.79c1.14,2.8,10.69,13.57,10.69,13.57s6,7.89,14.65,11.57,19.19,11.39,20,12.79c.51.87,7.35,5,12.17,7.86l1.09.63,2.38,1.39,1.27.72,5.86-4.72c2.92-2.38,5.75-4.69,5.8-4.82s1.22-3.24,1-3.45-.73-1.3-1.84-2.71a12.46,12.46,0,0,0-4.46-3.69,12.67,12.67,0,0,1-5.78-6s-.39-.28-1-.65a11.57,11.57,0,0,0-3.94-1.72c-1.93-.24-5.51-4.18-5.51-4.18a10.79,10.79,0,0,1-3.45-3.6c-.92-1.92-14.51-11.21-15.77-12.07l33,21.11,7.88,5.06,11.3-8.84,17.79-17.53-5.87-.25c-8.62-.38-24-1-25.93-.53a14.75,14.75,0,0,1-4.82.31s-4.38.2-7.27-1.33-7.46-2.24-8-3.37-16-6.57-16-6.57-21.11-11.2-28.64-4.55S338.05,529,339.2,531.79Z" transform="translate(-44.58 -64.98)"/><path class="cls-20" d="M407.28,467.48l2.71,9,3.5,20.33,12.88.86,3.73-6.19,3.72-6.16s2.32-8.22,4-16.17c1.47-7,2.43-13.85.86-14.59s-2.35-3-3-5.57c-.08-.31-.15-.63-.21-.95a49.45,49.45,0,0,1-.86-6.53s-27-1.41-23.23,9.72a17.55,17.55,0,0,1,1,5.92c0,.5,0,1-.08,1.5A12.66,12.66,0,0,1,407.28,467.48Z" transform="translate(-44.58 -64.98)"/><path class="cls-21" d="M401.66,466l1,15.33,2.19,13.05,2.46,6,2.19,33.07s21.12,2.44,26.25,0a2.33,2.33,0,0,0,.94-.73c6.2-9.37,4.17-36.51,4.17-36.51l2.39-17.55-1.58-9.09-3.81-.41-2.94-.31s-.67.81-1.61,2.08c-2.59,3.45-7.38,10.17-7.06,13,.44,3.85-.53,7.76-2,8.41s-2.72,1.67-3,.62a4.75,4.75,0,0,1-.26-2.81c.26-1.49-1.14-6-1.14-6s-2.36-5.34-2.19-7.62-.26-4.91-1-5.52-1.66-1.23-.86-4-3.45-8.26-3.45-8.26Z" transform="translate(-44.58 -64.98)"/><path class="cls-19" d="M429.57,504.28l.86,26.2,5.06,2.81a2.18,2.18,0,0,0,.93-.74c6.21-9.37,4.18-36.51,4.18-36.51L443,478.52l-1.58-9.1-3.81-.4c1.47-7,2.44-13.85.86-14.59-1.42-.66-2.36-3-3-5.57h0l-2.75,18.53s.24,1.66.31,3.39a9.48,9.48,0,0,1-.22,3.27,10.88,10.88,0,0,0-.17,4.37c-1.58,2.79-2.37,7.94-2.75,12.94C429.37,498,429.57,504.28,429.57,504.28Z" transform="translate(-44.58 -64.98)"/><path class="cls-18" d="M435.54,448.42s4.42.56,5.81,2.39,5.09,2.11,5.09,2.11,4.21,1.4,4.11,1.72,1.23.86,3.86,1.58,7,3.24,7,3.86,6.9,7.44,6.9,8.15,2.09,3.32,1.84,8-.53,10.51.52,11.47,0,4.74,0,4.74a2.58,2.58,0,0,0-.09,2.8c.87,1.58-.18,8.15-.18,8.15l.1,6.83s-1,4.31.17,4.47-.17,2.1-.17,2.1-1,3.51.26,5.09,1.57,8.32,1.57,8.32l18.75,27.24s.26,5-5.69,4.91-5.87,1.14-5.69,2.28S478,567,478,567s-2.37,1.22-1,2.71,5.43,4.91-1.23,7.18a15.91,15.91,0,0,1-1.93-3.5,40.75,40.75,0,0,1-1.4-4.73s-.61-6.66-1.84-7.53-1.05-5.09-1.05-5.09,1.72-3.45-.7-4.82-38-21.11-38-21.11l-.87-26.2s-.61-19.36,3.07-25.86a10.8,10.8,0,0,1,.18-4.38c.61-1.58-.09-6.66-.09-6.66Z" transform="translate(-44.58 -64.98)"/><path class="cls-19" d="M412.58,459s-8.81-1.82-11.21-.6-7,2.19-7.71,2.9-2.45.17-4,4.31-1.72,8.32-3.77,10.25-3.07,3.24-3.15,4.64.27,1.72-.53,2.19-1.92,2.28-1.58,3,18.23,16.12,18.23,16.12.86,5.87,1.66,7.36-.86,22-2.63,23.39,11.87,1.27,11.87,1.27.62-13.45,1.14-14.16-.35-15.07-.35-15.07-.09-12.26,1.05-15.51,1-14,1-14,1-6.46,2.23-8S412.58,459,412.58,459Z" transform="translate(-44.58 -64.98)"/><path class="cls-18" d="M412.32,458.69s-8.81-1.81-11.21-.58-7,2.19-7.7,2.88-2.46.18-4,4.31-1.72,8.33-3.77,10.25-3.07,3.25-3.15,4.65.26,1.72-.53,2.19-1.93,2.28-1.58,3,18.23,16.12,18.23,16.12.86,5.87,1.66,7.36-.86,22-2.63,23.39,11.83,1.27,11.83,1.27.61-13.45,1.14-14.15-.35-15.07-.35-15.07-.09-12.26,1-15.51,1-14,1-14,1-6.46,2.23-8S412.32,458.69,412.32,458.69Z" transform="translate(-44.58 -64.98)"/><path class="cls-19" d="M411.39,451.27a17.79,17.79,0,0,1,1,5.91,20.07,20.07,0,0,0,23-9.1,49.67,49.67,0,0,1-.86-6.53S407.62,440.14,411.39,451.27Z" transform="translate(-44.58 -64.98)"/><path class="cls-20" d="M398.08,437.43a20,20,0,1,0,.43-4.18A20,20,0,0,0,398.08,437.43Z" transform="translate(-44.58 -64.98)"/><path class="cls-18" d="M385.2,483.86l-4.82,1.5a2.49,2.49,0,0,1-1,2.58,2.91,2.91,0,0,0-1.23,2.59s-.52,1.93-1.72,2.37-2,3.33-2,3.33l-4,4.64s-1.49,1.23-1.22,1.84-1.58.78-1.58.78l1,15.61,8.32,1.57,5.17-.53,4.21-1.57,3.68-2.2,1.66-4.31,7.35-11.2Z" transform="translate(-44.58 -64.98)"/><path class="cls-20" d="M368.81,504.8s-10.69-15.42-18.66-7.09,3.24,21.81,5.87,21.37,15.16-1.14,15.16-1.14Z" transform="translate(-44.58 -64.98)"/><path class="cls-19" d="M398.51,433.25a2.41,2.41,0,0,1,1.47.67c.68.71.71,2,1.6,2.43a1.86,1.86,0,0,0,1,.12c2.33-.34,3.67-3,5.92-3.69a6.08,6.08,0,0,1,3.92.33,3,3,0,0,1,1.29.87c.75,1,.22,2.39.57,3.57.48,1.63,2.42,2.27,4.11,2.48s3.58.33,4.7,1.6A4.31,4.31,0,0,1,424,445a2.68,2.68,0,0,0,0,1.26c.47,1.31,2.74,1.12,3.34.08.43-.75.3-1.38,1.32-1.59a4.38,4.38,0,0,1,2.14.37,15.7,15.7,0,0,0,5.56.86A20.07,20.07,0,0,0,400,428.92a20.52,20.52,0,0,0-1.47,4.38Z" transform="translate(-44.58 -64.98)"/><path class="cls-18" d="M424,445.73a2.68,2.68,0,0,1,0-1.26,4.34,4.34,0,0,0-.86-3.39c-1.12-1.27-3-1.39-4.7-1.6s-3.63-.87-4.11-2.49c-.35-1.17.18-2.58-.57-3.56a3,3,0,0,0-1.3-.87,6,6,0,0,0-3.92-.34c-2.24.72-3.58,3.35-5.91,3.69a1.85,1.85,0,0,1-1-.12c-.87-.45-.93-1.73-1.6-2.43-1.07-1.13-3.09-.41-4.39-1.25a4,4,0,0,1-1.41-2.58,12.56,12.56,0,0,1-.39-5.81c.76-3.26,3.67-5.49,5.54-8.28,1.72-2.58,2.7-5.87,5.31-7.59s5.94-1.33,8.88-.46a25.11,25.11,0,0,0,4.17,1.1c2.36.29,4.74-.36,7.13-.44a15.27,15.27,0,0,1,9.41,2.87,5,5,0,0,1,1.53,1.55,7.54,7.54,0,0,1,.69,2.79,14.2,14.2,0,0,0,1.85,5.12c.74,1.24,1.66,2.36,2.33,3.63a5.58,5.58,0,0,1,.63,4.15c-.23.72-.67,1.37-.87,2.11-.38,1.72.75,3.34,1.51,4.92a9.24,9.24,0,0,1,1,4.67,5.85,5.85,0,0,1-2.11,4.2,7.47,7.47,0,0,1-4.43,1.35,15.82,15.82,0,0,1-5.67-.86,4.14,4.14,0,0,0-2.14-.37c-1,.2-.86.86-1.32,1.58C426.69,446.85,424.41,447,424,445.73Z" transform="translate(-44.58 -64.98)"/><path class="cls-19" d="M413.15,558.85l11.3-8.84,17.78-17.53-5.87-.25a3.77,3.77,0,0,0-1.24,2.38c-.09,2.15-4.8.16-7.26,1.38s-14.45,16.59-16.54,16.49-3.77-1.07-4.64.42l-.07.1a2.44,2.44,0,0,1-1.33.79Z" transform="translate(-44.58 -64.98)"/><path class="cls-16" d="M390.36,558.24,396,576.35l.87,2.84,2.7-.74,6-1.64,26.55-7.29a23,23,0,0,0,9.56-2.59,28.86,28.86,0,0,1,16.5-3.6c3.51.33,7.41-1.18,10.65-7.17,0,0,7.36-21.73-11.2-27.94s-19.47,3.3-19.47,3.3l-.25.15c-.72.46-2.74,1.91-2.82,3.67-.08,2.14-4.8.14-7.25,1.37s-14.44,16.65-16.53,16.56-3.77-1.07-4.64.42a.61.61,0,0,1-.07.1c-.64.86-2.58,1.1-3.88,1.13h-1.22l-.16.06-1.35.39Z" transform="translate(-44.58 -64.98)"/><path class="cls-19" d="M391.84,523l2.73.44,1.14-11.3s-1.25-.19-2.82-.56C393.3,513.18,392.35,519.29,391.84,523Z" transform="translate(-44.58 -64.98)"/><path class="cls-19" d="M463.47,470.22s8.15-2.36,6.14,20.76a64.63,64.63,0,0,1-17.08,37.76s-17.36,7.62-25.15,6.4-13.47-1.49-13.47-1.49a20,20,0,0,0-7.89-2.11c-4.38-.17-13.58-2.88-13.79-3.76s2.28-13.75,1.23-14.72c0,0,12.27.5,13.49,1.39s3,.25,4.31,0,5.34-3.75,13.32-.69c0,0,2.71.27,3.77-.44a3.76,3.76,0,0,1,2.74-.17,7.51,7.51,0,0,0,1.89-1c.27-.34,2.37,0,2.37,0a.93.93,0,0,0,1.25-.43.64.64,0,0,0,.06-.18,5.79,5.79,0,0,1,1.23-1.92s2.37-13.32,6.83-18.31a2.87,2.87,0,0,0,1-2.55C445.34,487.39,453,467.39,463.47,470.22Z" transform="translate(-44.58 -64.98)"/><path class="cls-19" d="M400,555.36l11.57,14,.08-.08c.09-.26,1.22-3.25,1-3.45s-2.28-4.56-6.31-6.4a12,12,0,0,1-4.95-4.51Z" transform="translate(-44.58 -64.98)"/><path class="cls-19" d="M400.11,579.6l1.27.72s2.93-2.35,5.85-4.72,5.76-4.69,5.81-4.82,1.22-3.24.95-3.45-.73-1.3-1.84-2.71c-7.85-2.2-2.85,3.25-2.18,3.5,0,0-9.56-2.19-10.08,8.21A12.4,12.4,0,0,0,400.11,579.6Z" transform="translate(-44.58 -64.98)"/><path class="cls-18" d="M409.81,584l1.67,1,16.91.44a33.89,33.89,0,0,0,6,2.87,5.08,5.08,0,0,0,.86.19,37.19,37.19,0,0,0,4.72.09c1.29,0,2.29-.09,2.29-.09s-.8-21.32-1.4-23.56c-.29-1.08-1.73-.87-3.11-.31a20,20,0,0,0-3,1.54s-7.18.69-8.33,1.31-4.38-.35-6.4,0-5.6-2.37-5.6-2.37c-9.81-3.24-4.31,2.8-3.59,3.07,0,0-9.55-2.19-10.07,8.2S409.81,584,409.81,584Z" transform="translate(-44.58 -64.98)"/><path class="cls-22" d="M434.26,575.77c.18,4.41,3.62,9.89,5.68,12.79,1.29,0,2.29-.09,2.29-.09s-.8-21.32-1.4-23.56c-.29-1.08-1.73-.87-3.11-.31C436,567.79,434.11,572.21,434.26,575.77Z" transform="translate(-44.58 -64.98)"/><path class="cls-19" d="M434.26,575.77c.18,4.41,3.62,9.89,5.68,12.79,1.29,0,2.29-.09,2.29-.09s-.8-21.32-1.4-23.56c-.29-1.08-1.73-.87-3.11-.31C436,567.79,434.11,572.21,434.26,575.77Z" transform="translate(-44.58 -64.98)"/><path class="cls-17" d="M431.37,576.35c1.17,4.26,1.15,9,3,11.93a5.08,5.08,0,0,0,.86.19,37.19,37.19,0,0,0,4.72.09c1.29,0,2.29-.09,2.29-.09s-.8-21.32-1.4-23.56c-.29-1.08-1.73-.87-3.11-.31a20,20,0,0,0-3,1.54S429.88,570.9,431.37,576.35Z" transform="translate(-44.58 -64.98)"/><path class="cls-19" d="M373,533.13s8.39,2.72,15.51,12.41Z" transform="translate(-44.58 -64.98)"/><g class="cls-23"><path d="M441.28,428l0,.19a6.67,6.67,0,0,1-.29.74A6.08,6.08,0,0,1,441.28,428Z" transform="translate(-44.58 -64.98)"/><path d="M393.77,423.74a8.29,8.29,0,0,1,.64-1.72l-.12.46a12.7,12.7,0,0,0,.39,5.81,4,4,0,0,0,1.42,2.58c1.3.87,3.31.12,4.38,1.24.68.71.71,2,1.59,2.43a1.73,1.73,0,0,0,1.05.12c2.33-.33,3.67-3,5.92-3.68a5.92,5.92,0,0,1,3.91.33,2.94,2.94,0,0,1,1.3.87c.75,1,.22,2.39.57,3.56.48,1.62,2.42,2.27,4.1,2.49s3.58.32,4.71,1.6a4.22,4.22,0,0,1,.86,3.39,2.93,2.93,0,0,0,0,1.25c.47,1.32,2.74,1.12,3.34.08.43-.75.3-1.37,1.32-1.59a4.38,4.38,0,0,1,2.14.37,15.82,15.82,0,0,0,5.67.86,7.59,7.59,0,0,0,4.44-1.34,5.38,5.38,0,0,0,1.36-1.67,5.6,5.6,0,0,1-1.89,3,7.54,7.54,0,0,1-4.44,1.34,15.8,15.8,0,0,1-5.66-.86,4.4,4.4,0,0,0-2.15-.37c-1,.21-.86.86-1.32,1.59-.59,1-2.87,1.23-3.33-.08a2.68,2.68,0,0,1,0-1.26,4.23,4.23,0,0,0-.87-3.39c-1.13-1.27-3-1.39-4.7-1.6s-3.62-.86-4.11-2.48c-.34-1.18.18-2.59-.57-3.57a2.93,2.93,0,0,0-1.29-.87,6,6,0,0,0-3.92-.34c-2.24.72-3.59,3.35-5.91,3.69a1.93,1.93,0,0,1-1.06-.12c-.86-.45-.91-1.73-1.59-2.43-1.06-1.13-3.08-.41-4.38-1.24a4,4,0,0,1-1.41-2.59A12.56,12.56,0,0,1,393.77,423.74Z" transform="translate(-44.58 -64.98)"/></g><path class="cls-19" d="M442.64,493.87c-1.61,2.17-3.45,4.17-4.86,6.47a12.27,12.27,0,0,0-2.12,7.64c1.46-1.5,2.13-3.59,3.06-5.48,1.57-3.21,3.92-5.92,5.89-8.86.38-.56,2.8-3.81,1.58-4C445.18,489.55,443.22,493.13,442.64,493.87Z" transform="translate(-44.58 -64.98)"/><path class="cls-24" d="M398.29,458.49l17.56,33.21c.52,1-.91,2.77-3.19,4L325,542c-2.28,1.2-4.57,1.38-5.09.39l-17.56-33.2c-.52-1,.8-3,3.08-4.19l87.65-46.35C395.38,457.48,397.77,457.5,398.29,458.49Z" transform="translate(-44.58 -64.98)"/><g class="cls-10"><path class="cls-11" d="M398.29,458.49l17.56,33.21c.52,1-.91,2.77-3.19,4L325,542c-2.28,1.2-4.57,1.38-5.09.39l-17.56-33.2c-.52-1,.8-3,3.08-4.19l87.65-46.35C395.38,457.48,397.77,457.5,398.29,458.49Z" transform="translate(-44.58 -64.98)"/></g><rect class="cls-12" x="347.08" y="484.7" width="51.65" height="1.82" transform="translate(-228.34 165.66) rotate(-27.87)"/><rect class="cls-14" x="349.16" y="488.63" width="51.65" height="1.82" transform="translate(-229.94 167.09) rotate(-27.87)"/><rect class="cls-14" x="351.24" y="492.55" width="51.65" height="1.82" transform="translate(-231.53 168.52) rotate(-27.87)"/><rect class="cls-14" x="353.32" y="496.49" width="51.65" height="1.82" transform="translate(-233.12 169.95) rotate(-27.87)"/><path class="cls-13" d="M324.71,505.51a12.24,12.24,0,0,0,4.53,23l-1-1.83a2.79,2.79,0,0,1,.86-3.59,4.84,4.84,0,0,0,7.53-4,2.79,2.79,0,0,1,3.45,1.3l1,1.87a12.24,12.24,0,0,0-16.42-16.78Zm11.75,10.7a.78.78,0,0,1,0,.26.68.68,0,0,1-.26.27l-.22.12a4.86,4.86,0,1,1-9.52,2,4.59,4.59,0,0,1-.1-1.11h-.06a1.62,1.62,0,0,1-.9-2.07,3,3,0,0,1,.71-.8,4.53,4.53,0,0,0,1.35-2.91,5.65,5.65,0,0,1,.31.66,1.09,1.09,0,0,1,1.33-.76,4.62,4.62,0,0,0,.62.23,1.47,1.47,0,0,0,.56-.11l1.15-.44a1.72,1.72,0,0,1,2.26.31,12.26,12.26,0,0,1,1.91,1.9,4.13,4.13,0,0,1,.9,2.47Z" transform="translate(-44.58 -64.98)"/><path class="cls-20" d="M361.89,508c-.09,11.56,23.84,14,23.84,14l6.11,1,2.73.44,1.14-11.3s-1.25-.19-2.82-.56c-2.31-.54-5.31-1.47-5.94-2.78C385.9,506.64,362,496.48,361.89,508Z" transform="translate(-44.58 -64.98)"/><path class="cls-18" d="M463.26,468.44s8.15-2.36,6.14,20.77A64.61,64.61,0,0,1,452.31,527s-17.35,7.62-25.15,6.39-13.49-1.49-13.49-1.49a19.87,19.87,0,0,0-7.88-2.1c-4.38-.17-13.58-2.89-13.8-3.77s2.29-13.79,1.24-14.71c0,0,12.26.5,13.49,1.38s3,.25,4.31,0,5.34-3.75,13.32-.69c0,0,2.71.27,3.76-.44a3.82,3.82,0,0,1,2.74-.17,7.38,7.38,0,0,0,1.9-1c.27-.35,2.37,0,2.37,0a.93.93,0,0,0,1.24-.42.68.68,0,0,0,.07-.2,5.88,5.88,0,0,1,1.23-1.93s2.37-13.31,6.83-18.31a2.83,2.83,0,0,0,1-2.53C445.12,485.61,452.75,465.67,463.26,468.44Z" transform="translate(-44.58 -64.98)"/><path class="cls-24" d="M801.62,182.34v48.28c0,1.44-2.69,2.58-6,2.58H668.21c-3.33,0-6-1.16-6-2.58V182.34c0-1.44,2.69-2.9,6-2.9h127.4C798.93,179.46,801.62,180.9,801.62,182.34Z" transform="translate(-44.58 -64.98)"/><g class="cls-23"><path class="cls-25" d="M786.7,191.13V239.4c0,1.43-2.7,2.59-6,2.59H653.32c-3.33,0-6-1.17-6-2.59V191.13c0-1.44,2.69-2.91,6-2.91H780.68C784,188.22,786.7,189.69,786.7,191.13Z" transform="translate(-44.58 -64.98)"/></g><path class="cls-24" d="M801.62,182.34v48.28c0,1.44-2.69,2.58-6,2.58H668.21c-3.33,0-6-1.16-6-2.58V182.34c0-1.44,2.69-2.9,6-2.9h127.4C798.93,179.46,801.62,180.9,801.62,182.34Z" transform="translate(-44.58 -64.98)"/><g class="cls-10"><path class="cls-11" d="M801.62,182.34v48.28c0,1.44-2.69,2.58-6,2.58H668.21c-3.33,0-6-1.16-6-2.58V182.34c0-1.44,2.69-2.9,6-2.9h127.4C798.93,179.46,801.62,180.9,801.62,182.34Z" transform="translate(-44.58 -64.98)"/></g><rect class="cls-12" x="678.82" y="131.7" width="66.34" height="2.34"/><rect class="cls-14" x="678.82" y="137.4" width="66.34" height="2.34"/><rect class="cls-14" x="678.82" y="143.11" width="66.34" height="2.34"/><rect class="cls-14" x="678.82" y="148.82" width="66.34" height="2.34"/><path class="cls-13" d="M689.84,191.53a15.73,15.73,0,0,0-8.7,28.86v-2.66a3.59,3.59,0,0,1,3.15-3.54,6.25,6.25,0,0,0,11,0,3.57,3.57,0,0,1,3.14,3.54v2.73a15.73,15.73,0,0,0-8.54-28.93Zm6.9,19.2a.67.67,0,0,1-.67.42h-.32a6.24,6.24,0,1,1-11.41-4.84l-.07,0a2.08,2.08,0,0,1,.21-2.89,4.28,4.28,0,0,1,1.29-.48,5.75,5.75,0,0,0,3.28-2.5,7.53,7.53,0,0,1,0,.95,1.39,1.39,0,0,1,2-.08h0c.2.2.33.48.57.63a1.53,1.53,0,0,0,.7.2l1.56.21a2.2,2.2,0,0,1,2.38,1.72,14.83,14.83,0,0,1,1,3.32,5.21,5.21,0,0,1-.5,3.38Z" transform="translate(-44.58 -64.98)"/><path class="cls-26" d="M842,577.23c-1.19-4.31-2-8.08-2-8.08a16.8,16.8,0,0,0-2.21-8.2l0-1.18h0l-.34-8.76a29.2,29.2,0,0,1,2-4.66c1.47-2.8-.49-12.8-.49-12.8s-6.38-13.95-5.3-23-13.51-39.47-13.51-39.47a39.39,39.39,0,0,1,.92-8.86,6.84,6.84,0,0,0,.1-1.86v-.16c-.43-5.92-5.55-16.85-5.55-16.85l-.19-21.22s2.52-12.61-3-29.19c-1.93-5.78-3.2-10.43-4-14-.09-.41-.19-.8-.27-1.18,10-1.91,17.62-3.44,17.62-3.44S819,350.17,814.87,346s-7.75-17.4-7.75-17.4-2.71-17.15.4-22.31,3.23-13.93,3.23-13.93,7.35-5.78,8.2-8.26,2.22-8,2.1-10.91-1.15-5.46-.86-7-2.49-7.23-1.33-10a7.47,7.47,0,0,0,.4-2.66v-.11a37.15,37.15,0,0,0-.94-7.12,20.23,20.23,0,0,0-7.64-3.72l-.19-.64-.49-1.73c-.26-.15-.51-.29-.76-.41v-.62l-.16-2.48,1-5.61c2-9.77-11-10.71-11-10.71a6.71,6.71,0,0,0-3.78-3.06c-2.63-.87.12,14.57,1.38,15.51.94.71,4,5.45,5.4,7.76h0l.24.38a7.16,7.16,0,0,0-.57.65l.62,3.33.1.52a13.53,13.53,0,0,0-1.93,3.59s2.46,2.5,2.1,5.41a16.66,16.66,0,0,0,1,6.67c-.14-.15-1.88-1.89-3.51-1.38s-6.24,2.07-6.24,2.07-3.45.74-3.09,1.49-2.2,4.21-2.2,4.21l-9.66-8.47-.3-.78a22,22,0,0,1-1-3.84,21.08,21.08,0,0,0,2.94-1.06,6.38,6.38,0,0,0,2.51-1.72,10.64,10.64,0,0,0,1.35-4.07c.63-2.74,2.12-5.21,3.15-7.84a25.06,25.06,0,0,0,1.27-13.84,9.2,9.2,0,0,0-1.59-4c-1.6-2-4.38-2.79-6.45-4.37s-3.45-4.09-5.85-5.25c-2.15-1.05-4.72-.86-7.08-.34a37.9,37.9,0,0,0-13,5.3c-1.32.87-2.78,1.85-4.31,1.62a5.88,5.88,0,0,1-3.27-2.21v-.13l-.11-.11a16.32,16.32,0,0,0-1.17,7,5.24,5.24,0,0,0,.08,1.12V225a1.82,1.82,0,0,1,0,.33h0a1.67,1.67,0,0,1,0,.5,3.52,3.52,0,0,1-.86,1.29,7.15,7.15,0,0,0-.72,1.07,1.15,1.15,0,0,1,.11-.39,5.39,5.39,0,0,0-.86,3,2.91,2.91,0,0,0,.77,2.08,9.79,9.79,0,0,0,1.57,1.16,17,17,0,0,0-.16,3.11,18,18,0,0,0,9.36,15c.12.26.23.52.35.79A22.23,22.23,0,0,1,757.72,263a4.53,4.53,0,0,1-.09.74c0,.25-.22.27-.32.41h0s-15.37.74-19.11-2.4-8.82,8.36-8.82,8.36-5.47,1.28-6.62.25-7.57.14-7.57.14a13.84,13.84,0,0,0-9.73-3.14,28.58,28.58,0,0,0-7.21-3.64h0l-.18-.05h0a7.72,7.72,0,0,0-3.44-.31s-7.81-6-10.14-9.23-13.31-15.3-13.36-15.36l-.06-.59-.19-1.82a6.07,6.07,0,0,1-.94.13l-.24-.63a32.8,32.8,0,0,0-2.43-5s-.08-2.29.56-2.89-.62-9-.62-9-7.42-15.66-13.07-3.53c0,0-11.2,8.14-1.21,16.72,0,0,3.94,1.72,4.54,3.18.4,1,1.81,3.59,2.76,5.34.15.29.3.55.42.79l-.1.09.2,1.49.07.58c-1.77,1.1-3,2.18-2.64,2.95a16.86,16.86,0,0,1,1.26,4.07s14,16.25,16,23.35c0,0,36.72,20,48.59,21l-1.55,10.72q-.28,4.35-.14,8.71c.25,2.28-.93,12.7-.93,12.7s-1.46,15.32-3.11,17.53-1,11.33-1,11.33a77.71,77.71,0,0,1-1.86,13.05c-1.51,5.85,0,13,0,13s-5.46,14,8.51,4.1c0,0,7-.71,15.11-1.3v.81c0,1.05,0,2.18.08,3.36.19,7.87.56,18.69,1.24,26.88,1.19,14.45,6.7,42.9,6.7,42.9l.56,14.4a19,19,0,0,0-.25,4.13,26.68,26.68,0,0,0,4.39,14.3l1.48,9.55s2.82,6.23,3,10a4.77,4.77,0,0,1-.08.92,6,6,0,0,0-.06,1.47c0,4.37,3,14.7,3,14.7s.56,10.51,2.15,11.06c1.37.47-1.56,6.13-2.44,7.76,0-.1-.05-.2-.07-.3l-.18.33a7.61,7.61,0,0,0-.39,2.68,3.83,3.83,0,0,0,1.89,3.63c3.06,1.72,4.73,3.17,2.22,3.88a26.5,26.5,0,0,0-2.76.69c0-.12-.1-.24-.15-.35a1.72,1.72,0,0,0-1,1.88,7.82,7.82,0,0,0,1.07,3.53,38.8,38.8,0,0,0,4.57,7.62l1.2-.19a6.27,6.27,0,0,1-.64,1.33,5.15,5.15,0,0,1-1.73,1.65,5.46,5.46,0,0,1-2.12.86,6,6,0,0,0-4.38,2.35c-1.49,2.08-2.37,4.89.86,7.2l11.42,3.45s19.46,1.78,18.26-2.53-2-8.09-2-8.09a17.38,17.38,0,0,0-1.87-7.65,11.16,11.16,0,0,0-.73-1.11l.68-.1s1.05-9.66,2.87-11.56c.42-.43.51-.76.39-1,.18-.53-.32-.86-1-1a1.51,1.51,0,0,1-.12.38,10,10,0,0,0-1.89-.13s-.86-5,1.16-6.9a2,2,0,0,0,.33-1.51,8.16,8.16,0,0,0-.29-2,.23.23,0,0,0-.06.12c-1.22-4.53-5-11.65-5-11.65s-.33-4.57.86-6.44-1.12-24.84-1.12-24.84,0-11.15-1.57-16.27,1.3-11.35,1.3-11.35a1.59,1.59,0,0,0-.05-.33v-.08l-.25-1.72v.11c-.42-2.93-1.23-8.24-1.73-10.7-.76-3.45-.62-20.27-.62-20.27L779,433.4l5.52,12.15,6,16.26s2.78,3.37,3,6.9v.52a10.09,10.09,0,0,0,0,1.1,9.83,9.83,0,0,0,1.85,5.79s1.73,7.76,4,9.62,2.44,5.71,2.44,5.71,3.11,11.21,4.44,13.11c1.12,1.63,1.36,6.22,1.4,7.62h0v.42s.53,4,.65,7.4v1.12a12.07,12.07,0,0,1-.23,2.75v-.4a29.27,29.27,0,0,0-.53,7c.08,4.06.86,8.83,3.45,11.56,4.44,4.71,7.09,4,7.09,4s-1.81,6.17-4.31,7.49a2.11,2.11,0,0,0-.27.18,2.05,2.05,0,0,0-.07-.34,2.92,2.92,0,0,0-.65,2.29c-.08,2.69,1.78,7,3.45,8.92a5,5,0,0,0,2.17,1.16L818,566a7.75,7.75,0,0,1-.86.44,4.11,4.11,0,0,1-1.28.38,6.13,6.13,0,0,0-4.38,2.35c-1.48,2.08-2.37,4.89.87,7.2l11.41,3.45S843.21,581.54,842,577.23Z" transform="translate(-44.58 -64.98)"/><path class="cls-27" d="M768.27,587.28l-11-3.45c-3.1-2.32-2.24-5.13-.8-7.22a5.79,5.79,0,0,1,4.23-2.33,5.12,5.12,0,0,0,2.05-.87,4.94,4.94,0,0,0,1.67-1.64,8.05,8.05,0,0,0,1.08-4.26s11.83-4,15.24-.59a9.14,9.14,0,0,1,1.54,2.07,17.86,17.86,0,0,1,1.82,7.66s.76,3.77,1.91,8.08S768.27,587.28,768.27,587.28Z" transform="translate(-44.58 -64.98)"/><path class="cls-27" d="M821.41,579.85l-11-3.44c-3.11-2.31-2.25-5.12-.82-7.2a5.78,5.78,0,0,1,4.24-2.34,4.41,4.41,0,0,0,1.23-.39,5.36,5.36,0,0,0,.86-.44c3-1.79,2.75-5.9,2.75-5.9s11.84-4,15.24-.59a8.35,8.35,0,0,1,1.21,1.51c2.19,3.45,2.15,8.21,2.15,8.21s.76,3.79,1.91,8.09S821.41,579.85,821.41,579.85Z" transform="translate(-44.58 -64.98)"/><path class="cls-19" d="M780.69,567a8.92,8.92,0,0,1,1.54,2.07h0l-17.86,2.76a8,8,0,0,0,1.08-4.25S777.28,563.58,780.69,567Z" transform="translate(-44.58 -64.98)"/><path class="cls-19" d="M835,561l.13,3.37c-2.59,4.7-16.14,4.21-20.15,2.06a7.71,7.71,0,0,0,.86-.44c3-1.8,2.75-5.91,2.75-5.91s11.84-4,15.24-.58A8.07,8.07,0,0,1,835,561Z" transform="translate(-44.58 -64.98)"/><path class="cls-16" d="M836.61,546.49a30.18,30.18,0,0,0-2,4.66l.45,12.07c-2.85,5.17-18.76,4.08-21,1.42s-4.81-9.73-2.41-11,4.14-7.49,4.14-7.49-2.59.71-6.9-4-3.5-15.59-2.83-18.21-.44-11.28-.44-11.28-.08-6.11-1.37-8S800,491.46,800,491.46s-.15-3.81-2.36-5.72-3.88-9.62-3.88-9.62a10,10,0,0,1-1.77-6.49c.31-3.83-2.9-7.83-2.9-7.83l-5.82-16.25-5.35-12.17-2.46,7.29s-.12,16.79.63,20.27,2,12.74,2,12.74-2.82,6.22-1.24,11.35,1.54,16.27,1.54,16.27,2.25,23,1.1,24.84-.86,6.44-.86,6.44,6.77,13.17,4.86,15.08-1.12,6.89-1.12,6.89,4.31-.16,2.52,1.73-2.77,11.56-2.77,11.56l-18.34,2.84a38,38,0,0,1-4.43-7.62c-2.66-5.55.26-5,2.7-5.75s.86-2.16-2.15-3.89-1.45-5.89-1.45-5.89,4.13-7.64,2.59-8.19-2.11-11.06-2.11-11.06-3.52-12.38-2.89-15.77-2.88-11.34-2.88-11.34l-1.43-9.56a26.35,26.35,0,0,1-4-18l-.54-14.84s-5.37-28.45-6.53-42.95c-.75-9.26-1.13-21.91-1.31-29.82-.09-4.43-.12-7.37-.12-7.37l65.57-9.38a55.28,55.28,0,0,0,1.57,9.73c.81,3.58,2,8.23,3.92,14,5.37,16.59,3,29.2,3,29.2l.21,21.21s6.33,14,5.3,18.88a40.8,40.8,0,0,0-.86,8.89S832,501.61,831,510.65s5.17,23,5.17,23S838,543.69,836.61,546.49Z" transform="translate(-44.58 -64.98)"/><path class="cls-17" d="M795.91,468.53l19.94-3.45S804.94,477.11,795.91,468.53Z" transform="translate(-44.58 -64.98)"/><path class="cls-19" d="M812.18,445.61s1,7.06-3.29,9.9C808.92,455.51,816.65,454,812.18,445.61Z" transform="translate(-44.58 -64.98)"/><path class="cls-19" d="M810.11,423.11s-16.23,14.44-22.42,13.53S810.11,423.11,810.11,423.11Z" transform="translate(-44.58 -64.98)"/><path class="cls-19" d="M771.31,476s-12.61,3.38-12.79,8.5S771.31,476,771.31,476Z" transform="translate(-44.58 -64.98)"/><path class="cls-17" d="M776.56,539.41s-17.83,4.05-12.66,6.13,13.65,3.61,13.65,3.61S783.35,549.23,776.56,539.41Z" transform="translate(-44.58 -64.98)"/><g class="cls-28"><path d="M760.45,549.29a3.57,3.57,0,0,1-1.72-2.55l-.17.33S757,551.24,760,553c.35.19.67.38,1,.57.53-.12,1.1-.21,1.65-.38C765,552.5,763.37,551,760.45,549.29Z" transform="translate(-44.58 -64.98)"/><path d="M783.53,547.21c.47-.48.41-1.65.05-3.14a8.55,8.55,0,0,0-.86,4.45A3.56,3.56,0,0,1,783.53,547.21Z" transform="translate(-44.58 -64.98)"/><path d="M777.84,471.48a21,21,0,0,0-1,5.66,21.45,21.45,0,0,1,1.25-3.91S778,472.56,777.84,471.48Z" transform="translate(-44.58 -64.98)"/><path d="M818.71,461.9a6.67,6.67,0,0,0,.1-1.67c-.18,1.14-.3,2.2-.38,3.13C818.52,462.89,818.61,462.4,818.71,461.9Z" transform="translate(-44.58 -64.98)"/><path d="M779.5,525.68a9.68,9.68,0,0,0,.31-3.39,11.28,11.28,0,0,0-.7,4.31A3.91,3.91,0,0,1,779.5,525.68Z" transform="translate(-44.58 -64.98)"/><path d="M784.37,554.29a60.79,60.79,0,0,0-1.72,9.48l-18.34,2.84a38.68,38.68,0,0,1-4.43-7.61c-.23-.49-.42-.93-.57-1.33-1.09.55-1.48,1.73.1,5a38,38,0,0,0,4.43,7.61l18.34-2.84s1-9.66,2.76-11.55C785.8,554.92,785.2,554.46,784.37,554.29Z" transform="translate(-44.58 -64.98)"/><path d="M759,527.85s.56,10.51,2.1,11.06h0c.71-1.76,1.16-3.44.47-3.68-1.55-.55-2.1-11.06-2.1-11.06s-3.54-12.38-2.9-15.76-2.88-11.34-2.88-11.34l-1.44-9.56a26.42,26.42,0,0,1-4.05-18l-.57-14.78s-5.37-28.45-6.54-43c-.75-9.26-1.12-21.92-1.3-29.82,0-1.43,0-2.7-.07-3.77l-.53.08s0,2.93.14,7.37c.17,7.9.55,20.56,1.29,29.82,1.17,14.46,6.54,42.95,6.54,42.95l.57,14.78a26.42,26.42,0,0,0,4,18l1.44,9.56s3.51,7.95,2.87,11.34S759,527.85,759,527.85Z" transform="translate(-44.58 -64.98)"/><path d="M814.56,560.49a18,18,0,0,1-3.19-7.12c-1.82,1.73.6,8.28,2.73,10.8,2.24,2.67,18.15,3.74,21-1.41l-.12-2.91C831,564.11,816.68,563,814.56,560.49Z" transform="translate(-44.58 -64.98)"/><path d="M837.07,542.39a30.12,30.12,0,0,0-2,4.65l.08,2.14c.32-.79.78-1.85,1.42-3.11a9.27,9.27,0,0,0,.51-3.8Z" transform="translate(-44.58 -64.98)"/><path d="M814.93,545.66A29.11,29.11,0,0,0,816.3,542s-2.59.7-6.9-4c-3.13-3.45-3.56-10.13-3.3-14.53-.67,2.59-1.47,13.49,2.83,18.21C811.77,544.73,813.84,545.49,814.93,545.66Z" transform="translate(-44.58 -64.98)"/><path d="M805.68,512.17a80,80,0,0,1,.66,9,9.84,9.84,0,0,1,.26-1.42c.66-2.59-.44-11.28-.44-11.28s-.09-6.1-1.38-8-4.31-13.11-4.31-13.11-.15-3.81-2.36-5.71-3.88-9.62-3.88-9.62a10,10,0,0,1-1.78-6.5c.31-3.83-2.89-7.82-2.89-7.82l-5.83-16.26-5.36-12.16-2.46,7.27v2.32l2-5.91,5.35,12.16,5.81,16.26s3.21,4,2.9,7.81a10,10,0,0,0,1.77,6.5s1.67,7.76,3.88,9.63S800,491,800,491s3,11.21,4.31,13.11S805.68,512.17,805.68,512.17Z" transform="translate(-44.58 -64.98)"/></g><path class="cls-29" d="M807.69,231.25l-.93,5.61.17,2.47.12,1.83-6.34.86-.77-1.29h0c-1.4-2.34-4.31-7.09-5.24-7.76-1.21-.94-3.9-16.33-1.35-15.52a6.7,6.7,0,0,1,3.67,3.07S809.59,221.49,807.69,231.25Z" transform="translate(-44.58 -64.98)"/><path class="cls-19" d="M807.05,241.16l-6.34.86-.77-1.29h0a5.63,5.63,0,0,1,7-1.43Z" transform="translate(-44.58 -64.98)"/><path class="cls-30" d="M808.73,244.12l-8.31,2.27-.23-1.25-.6-3.34a5.77,5.77,0,0,1,8.08-1.41l.48,1.72Z" transform="translate(-44.58 -64.98)"/><path class="cls-29" d="M672.44,237.07l-8.76,5.17s-.37-.69-.86-1.66c-.93-1.72-2.3-4.39-2.69-5.34-.58-1.46-4.39-3.19-4.39-3.19-9.72-8.62,1.15-16.72,1.15-16.72,5.45-12.12,12.65,3.56,12.65,3.56s1.24,8.35.61,8.94-.53,2.88-.53,2.88a33.56,33.56,0,0,1,2.35,5C672.28,236.55,672.44,237.07,672.44,237.07Z" transform="translate(-44.58 -64.98)"/><path class="cls-19" d="M672.44,237.07l-8.76,5.17s-.37-.69-.86-1.66c1.21-1.1,5.56-4.91,7-4.8a10.73,10.73,0,0,0,2.12,0C672.28,236.55,672.44,237.07,672.44,237.07Z" transform="translate(-44.58 -64.98)"/><path class="cls-30" d="M673.46,239.74l-9.87,5.34-.28-2.15-.2-1.49s5.64-5.22,7.37-5.1a9.38,9.38,0,0,0,2.59-.1l.19,1.8Z" transform="translate(-44.58 -64.98)"/><path class="cls-29" d="M784.73,269.12s-43.67,6.64-35.58,3.66c5.64-2.08,7.76-5.8,8.09-9.83a23,23,0,0,0-2-10.1,44.15,44.15,0,0,0-4.22-7.76s32.82-19.73,26.72-2.7a26.4,26.4,0,0,0-1.59,8,22.25,22.25,0,0,0,1.17,8A24,24,0,0,0,784.73,269.12Z" transform="translate(-44.58 -64.98)"/><path class="cls-19" d="M777.75,242.39a26.53,26.53,0,0,0-1.6,8c-3,2.78-6.53,2.73-11,2.91-3.45.13-7.18,1.1-10-.44a44.15,44.15,0,0,0-4.22-7.76S783.81,225.38,777.75,242.39Z" transform="translate(-44.58 -64.98)"/><circle class="cls-29" cx="719.35" cy="171.39" r="18.15"/><path class="cls-19" d="M784.73,269.12s-43.67,6.64-35.58,3.66c5.64-2.08,7.76-5.8,8.09-9.83,2.09-2.46,6.41-4.32,9.19-5.35a13.14,13.14,0,0,1,7.94-.43,11.21,11.21,0,0,1,3,1.22A24,24,0,0,0,784.73,269.12Z" transform="translate(-44.58 -64.98)"/><path class="cls-19" d="M808.73,244.12l-8.31,2.27-.23-1.25a7.45,7.45,0,0,1,8-3.07Z" transform="translate(-44.58 -64.98)"/><path class="cls-19" d="M673.46,239.74l-9.87,5.34-.28-2.15a72.36,72.36,0,0,1,10-4.85Z" transform="translate(-44.58 -64.98)"/><path class="cls-19" d="M806.33,379c-16.88,3.34-40.92,7.76-44.83,6.73-3.22-.86-13.38-.35-22.21.3-.1-4.43-.13-7.37-.13-7.37l65.58-9.39A54.26,54.26,0,0,0,806.33,379Z" transform="translate(-44.58 -64.98)"/><path class="cls-18" d="M823.12,374.37s-55.56,11.75-61.64,10.16-36.82,1.57-36.82,1.57c-13.51,9.83-8.25-4.11-8.25-4.11s-1.49-7.12,0-13a79.56,79.56,0,0,0,1.78-13s-.65-9.13.94-11.33,3-17.51,3-17.51,1.12-10.43.86-12.71a82.51,82.51,0,0,1,.13-8.7L724.67,295c-11.49-1.09-47.06-21.09-47.06-21.09-2-7.09-15.52-23.36-15.52-23.36a17.74,17.74,0,0,0-1.22-4.08c-1-2.4,12.52-7.81,12.52-7.81s10.69,12.07,12.93,15.38,9.82,9.24,9.82,9.24a7.27,7.27,0,0,1,3.37.31l.18.05h0a27.12,27.12,0,0,1,7,3.65,13.28,13.28,0,0,1,9.43,3.15s6.22-1.16,7.32-.13,6.4-.24,6.4-.24,4.9-11.49,8.53-8.35,18.51,2.42,18.51,2.42c1.88-2.71,6.63-4.79,9.61-5.87a13.07,13.07,0,0,1,7.94-.44,10.37,10.37,0,0,1,3.2,1.39l9.36,8.5s2.47-3.45,2.13-4.21,3-1.48,3-1.48,4.36-1.55,6-2.07,3.26,1.24,3.41,1.38a17.7,17.7,0,0,1-1-6.67c.34-2.83-2-5.41-2-5.41,4.84-13.31,17.29-2.8,17.29-2.8s1.66,7.11.54,9.9,1.55,8.48,1.3,10,.77,4.09.86,7-1.2,8.44-2,10.91-7.93,8.24-7.93,8.24-.12,8.71-3.13,13.87-.36,22.3-.36,22.3,3.57,13.29,7.54,17.41S823.12,374.37,823.12,374.37Z" transform="translate(-44.58 -64.98)"/><path class="cls-19" d="M737.72,277.22s-1.87-5-3.45-5.36a37,37,0,0,1-4.49-1.81l.86-1.92s5.79,1.35,6.77,3S737.72,277.22,737.72,277.22Z" transform="translate(-44.58 -64.98)"/><path class="cls-19" d="M706.66,267.27c-.25,1.54-13.79,3.45-13.79,3.45l6.59-7.15h0l.17.06h0A27,27,0,0,1,706.66,267.27Z" transform="translate(-44.58 -64.98)"/><circle class="cls-31" cx="622.02" cy="182.88" r="1.22"/><circle class="cls-31" cx="623.68" cy="185.26" r="1.22"/><circle class="cls-31" cx="625.29" cy="187.45" r="1.22"/><circle class="cls-31" cx="626.98" cy="189.82" r="1.22"/><circle class="cls-31" cx="770.65" cy="184.16" r="0.99"/><circle class="cls-31" cx="770.89" cy="186.4" r="0.99"/><circle class="cls-31" cx="771.11" cy="188.64" r="0.99"/><path class="cls-19" d="M739.38,318.52c-.14-.17,35.88,41.9,61.6,15.79C801,334.31,759.05,341.65,739.38,318.52Z" transform="translate(-44.58 -64.98)"/><path class="cls-19" d="M720.51,341.84s20.59-.23,23,5.6l.23,6.15a3.93,3.93,0,0,1-3.83.15c-2.11-1-14.78-6.9-19-3.67Z" transform="translate(-44.58 -64.98)"/><path class="cls-32" d="M720.9,341.82s19.68-.22,22,5.34l.22,5.87a3.76,3.76,0,0,1-3.66.14c-2-1-14.14-6.55-18.22-3.49Z" transform="translate(-44.58 -64.98)"/><path class="cls-19" d="M730,296.76a66.23,66.23,0,0,0,8.5,13.37,53.61,53.61,0,0,0,12.93,11.57S730.47,299.57,730,296.76Z" transform="translate(-44.58 -64.98)"/><path class="cls-19" d="M722.38,273.13s4,14.66,13,19.37Z" transform="translate(-44.58 -64.98)"/><path class="cls-19" d="M717.18,274.83c-.11-.27-2.59,11.83,12.07,17.9C729.27,292.73,723.06,290.88,717.18,274.83Z" transform="translate(-44.58 -64.98)"/><path class="cls-19" d="M806.56,261.45c-.22,0,7.31,4.4,9.39,6.5C816,268,810.9,261,806.56,261.45Z" transform="translate(-44.58 -64.98)"/><path class="cls-27" d="M759.66,253a2.86,2.86,0,0,0,3,2.74l.27,0c5.54.13,11.31.16,16.38-2.17a6.14,6.14,0,0,0,2.42-1.72c.87-1.15,1-2.67,1.31-4.07.61-2.74,2-5.18,3-7.83A26,26,0,0,0,787.27,226a9.33,9.33,0,0,0-1.53-4c-1.56-2-4.26-2.78-6.26-4.38s-3.36-4.09-5.67-5.25c-2.08-1.06-4.57-.87-6.89-.35a36.08,36.08,0,0,0-12.59,5.29c-1.28.87-2.69,1.84-4.21,1.62a5.9,5.9,0,0,1-3.24-2.29,17,17,0,0,0-1,8,3.4,3.4,0,0,1,0,1.19,3.64,3.64,0,0,1-.8,1.28c-1.3,1.64-2.06,4.18-.65,5.73.62.68,1.53,1,2.13,1.72,1.07,1.23.8,3.08.86,4.71a1.93,1.93,0,0,0,2.73,2,6.16,6.16,0,0,1,2.37-.32,4,4,0,0,1,2.14,1.52C757.31,245.6,758.44,249.14,759.66,253Z" transform="translate(-44.58 -64.98)"/><g class="cls-23"><path d="M782.22,250.37a6.24,6.24,0,0,1-2.43,1.72c-5,2.33-10.79,2.31-16.34,2.17a2.84,2.84,0,0,1-3.21-2.43,1.24,1.24,0,0,1,0-.27c-1.21-3.87-2.35-7.41-5-10.55a3.94,3.94,0,0,0-2.13-1.52,6.18,6.18,0,0,0-2.38.32,2.37,2.37,0,0,1-2.26-.45,2.47,2.47,0,0,1-.47-1.6c0-1.62.25-3.44-.86-4.7-.59-.69-1.52-1-2.13-1.73a3.61,3.61,0,0,1-.49-3.63c-.9,1.58-1.25,3.57-.07,4.87.61.68,1.54,1,2.13,1.73,1.07,1.23.8,3.08.86,4.71a2.39,2.39,0,0,0,.47,1.59,2.32,2.32,0,0,0,2.26.45,6.18,6.18,0,0,1,2.38-.32,4,4,0,0,1,2.13,1.52c2.68,3.15,3.81,6.68,5,10.55a2.85,2.85,0,0,0,3.23,2.71c5.55.13,11.31.15,16.38-2.18a6.24,6.24,0,0,0,2.43-1.72,5,5,0,0,0,.73-1.5A2.56,2.56,0,0,1,782.22,250.37Z" transform="translate(-44.58 -64.98)"/><path d="M745.91,225.3a2.55,2.55,0,0,0,.52-.94,3.4,3.4,0,0,0,0-1.19,16.85,16.85,0,0,1,.6-6.59l-.11-.13a16.76,16.76,0,0,0-1,8A5.31,5.31,0,0,1,745.91,225.3Z" transform="translate(-44.58 -64.98)"/></g><path class="cls-19" d="M756.85,264.12s22.77,2.14,24.68-1.36" transform="translate(-44.58 -64.98)"/><path class="cls-19" d="M800.54,253.05s12.58-.47,15.51,4.15" transform="translate(-44.58 -64.98)"/><path class="cls-24" d="M184,213.3v48.27c0,1.44-2.69,2.59-6,2.59H50.62c-3.33,0-6-1.16-6-2.59V213.3c0-1.44,2.69-2.91,6-2.91H178C181.31,210.39,184,211.86,184,213.3Z" transform="translate(-44.58 -64.98)"/><g class="cls-10"><path class="cls-11" d="M184,213.3v48.27c0,1.44-2.69,2.59-6,2.59H50.62c-3.33,0-6-1.16-6-2.59V213.3c0-1.44,2.69-2.91,6-2.91H178C181.31,210.39,184,211.86,184,213.3Z" transform="translate(-44.58 -64.98)"/></g><rect class="cls-12" x="61.2" y="162.65" width="66.34" height="2.34"/><path class="cls-13" d="M72.21,222.5a15.73,15.73,0,0,0-8.67,28.85v-1a3.58,3.58,0,0,1,3.15-3.54,6.23,6.23,0,0,0,8.47,2.48,6.29,6.29,0,0,0,2.48-2.48,3.57,3.57,0,0,1,3.14,3.54v1.12a15.73,15.73,0,0,0-8.57-28.92Zm6.17,19.94a6.23,6.23,0,0,1-12.43,0,6.81,6.81,0,0,1,3.36-9.05l.21-.1a2,2,0,0,1-.33-1.12,2.08,2.08,0,0,1,2.07-2.08h.16a2.09,2.09,0,0,0-1.66,3.11h.07a1.41,1.41,0,0,1,0-.41,2,2,0,0,1,.38-1.21,2.08,2.08,0,0,1,2-1.46h.15a2.11,2.11,0,0,0-1.59.93,2.08,2.08,0,0,1,2.88.59,2,2,0,0,1,.35,1.13V233a6.83,6.83,0,0,1,4.84,8.35,7.08,7.08,0,0,1-.39,1.09Z" transform="translate(-44.58 -64.98)"/><rect class="cls-14" x="61.2" y="168.36" width="66.34" height="2.34"/><rect class="cls-14" x="61.2" y="174.07" width="66.34" height="2.34"/><rect class="cls-14" x="61.2" y="179.77" width="66.34" height="2.34"/><path class="cls-33" d="M271.67,360.89a52.84,52.84,0,0,1-.87-7.94c0-3.19-4.31-6-4.31-6s-2.68-6.21-4.44-7.11-7.3-9-7.3-9a7.33,7.33,0,0,0-1.66-4.38,63.42,63.42,0,0,1-4.52-6.82h0c-.74-.91-.37-1.55-1.48-6.84-.06-.28-.13-.54-.21-.8a1,1,0,0,0-.11-.34,8.94,8.94,0,0,0,2.1-9.26,3.79,3.79,0,0,0-1.06-1.64c-1.25-1-3.26-.6-4.56-1.57l1.37-6.09c.34-1.48.51-3.38-.8-4.18a6.43,6.43,0,0,0-1.53-.52c-2.26-.71-3.53-3.09-4.11-5.37a18.32,18.32,0,0,1-.44-6.72c.25-2.16.86-4.26,1.12-6.42a17.76,17.76,0,0,0-2.74-11.44,8.89,8.89,0,0,0-3.61-3.4c-1.39-.62-3-.7-4.31-1.52-2.77-1.72-2.64-5.94-4.84-8.36s-6.13-2.4-9.36-1.57-6.42,2.25-9.73,1.88c-2.13-.23-4.13-1.2-6.26-1.42a6.6,6.6,0,0,0-1.83.08l0-.07a4,4,0,0,0-3.41,2.66,4.43,4.43,0,0,0-.1,1.09c0,.86.21,1.77.23,2.58a2.53,2.53,0,0,1-.61,1.84c-.42.46-1.05.7-1.46,1.16a1.91,1.91,0,0,0-.55,1.37c0,1.33,1.66,2.5,2.77,3h0c-.3.3-.59.61-.86.93a19.56,19.56,0,0,0-4.85,13,19.87,19.87,0,0,0,12.06,18.2c-.05.17-.09.32-.15.48a25.28,25.28,0,0,1-1.09,2.82,5.62,5.62,0,0,0-4.68.52c-2.13,1.46-6.28,1.37-7.39,1.1s-12.67-1.73-13.59-1.38-2.78-1.27-4,.92-1.73,3.38-3,3.92-3.33,2.29-3.05,2.65-3.06,2.58-3.06,2.58-2.86,3-4.52,3.38-5.17,2.65-5.17,2.65l-4.07,3.19s-3.05.46-2.13-1.64-1.67-4.75-1.67-4.75-5.17-10.49-5.17-12.67-4.25-11.41-4.25-11.41l-.52-.05-.24-.68a64.83,64.83,0,0,0-2.59-6.47c-1.47-3-2.41-3.36-2.41-3.36s-17.94-13.46-29.58-9.36,21.26,16.33,24.21,17.61c1,.44,1.78,1.89,2.31,3.57a15.29,15.29,0,0,0-6.34,5.77s7.11,15.78,7.29,19.7,4.91,14.87,4.91,14.87,1.72,8.12,11.27,7.66c0,0,13.12,2.41,16,0s5.45-4.31,6.84-4.58a5.35,5.35,0,0,0,2.59-1.82s-4.31,27.36-6.47,29.74-21,33.11-14.24,38.57a135,135,0,0,0,16.91,11.21c.58.29,2.3-2.58,4.75-4.61v1.58c.05,10.93,1.47,27.58,3.49,31.31,3,5.47,1.73,16.06,1.73,16.06a12.92,12.92,0,0,0,5,1.2c.08.35.19.72.29,1.11,1.63,6.15,4.27,15.67,5.61,18.2,2.05,3.84,3.52,16,3.52,16s1.2,12,.74,13.59c-.18.63.61,5.59,1.83,11.88h0c-.75,8.55-2.16,25.05-2.4,31h0v1h0a7,7,0,0,0,0,1.12,3.35,3.35,0,0,1-.12,1.72,27.8,27.8,0,0,1-2,4.78,23.67,23.67,0,0,0-.86,2.32c-.73.32-1.64,1.12-2.15,3.06-.93,3.56-2.31,13.41-2.31,13.41s-.56,6-1.67,7.39-2.21,9.94,5.64,11,11.28-4.17,11.28-4.17l-.28-23.88h0a3.39,3.39,0,0,0,.41-.65V559c.05-.12.11-.23.16-.37s0-.11.07-.17.08-.19.11-.29v-.11a15.58,15.58,0,0,0,.66-7.11v-.49a.43.43,0,0,0,0-.16V550a1.35,1.35,0,0,1,.06-.48.14.14,0,0,1,0-.09V549a1.77,1.77,0,0,1,.06-.3v-.07c.06-.35.16-.71.25-1.08v-.07l.11-.37h0c.12-.38.25-.76.38-1.14v-.08l.13-.35v0c.13-.36.26-.71.4-1.05v-.09l.13-.3V544l.29-.67h0l2.18,6.73s1.19,5,.55,6.2.74,6.12,1.66,6.2l-.86,6.21a94.19,94.19,0,0,0-.86,10.35c-.06.38-.12.72-.17,1-.59,3.17.87,8.1.87,8.1,7.3,8.62,16,.67,16,.67s1-4.56,0-5.47-.55-4.2-.55-4.2.45-8.12.55-14-4.86-11.15-4.86-11.15l-.27.25c-.86-2.31-1.92-5-1.73-6.25.37-2.09-1-24.25-1-24.25a134.32,134.32,0,0,0,.32-17.83h0c.12-1,.23-2,.34-3,.56-4.77,1-8.84,1.19-11h0v-.25c0-.58.07-1,.06-1.18,0-.71,0-1.6.07-2.53.18-2.58.58-5.41.58-5.41l1.94-11.77s1.47-5.74,3.6-8.94l.25-.4h0c.09-.14.17-.3.26-.46v-.07l.26-.49v-.07c.3-.59.62-1.27.95-2l.07-.16.25-.57.1-.23.25-.56c0-.08.06-.15.09-.23.1-.23.19-.46.3-.7l.13-.33c.08-.18.15-.35.22-.53l.19-.45.13-.33.21-.51a.78.78,0,0,1,.09-.24c.53-1.31,1-2.58,1.49-3.81h0c.15-.37.29-.72.42-1.06,4.73.29,7.94.56,7.94.56s1.49-10.68,1-17.7a65.57,65.57,0,0,1,1.16-14.17c.07-.37.13-.69.19-1l.12.11c2.32,1.82,4-4.2,4-4.2s-.62-5.63-1.46-12.43c0-.23-.06-.46-.08-.68a36.47,36.47,0,0,0,4,.62s.74-.07,1.72-.2a49.35,49.35,0,0,0,8.78,3.93l4.9-9.12a36.69,36.69,0,0,1,3.23-5.38c1.48-1.83,6.75-7.66,6.65-8.76s1.73-7.39,3.61-10.21S271.77,361.36,271.67,360.89Zm-20.52,6.9c-1.94.82-3.79,5.38-3.88,6.75s-2.13,7.39-4.26,8.12c-1.95.67-5.69,4.1-6.28,4.65-.61.06-1.3.14-2,.26-.81-5.76-1.61-10.51-2.13-11.48-1.47-2.74,1.63-11.49,1.63-11.49s.31-8.85,2.25-11,1.48-7.39,1.48-7.39.46-2.19.65-3.19,2.75,0,2.77,0h0s5,2.74,5.73,6.84,6.19,11.21,6.19,11.21-.86,2.45,0,3.74-.17,2.14-2.11,3Z" transform="translate(-44.58 -64.98)"/><path class="cls-34" d="M117.49,289.87a14.9,14.9,0,0,1,14.93-7v10.65H126l-5.1-1.32Z" transform="translate(-44.58 -64.98)"/><path class="cls-19" d="M117.49,289.87a14.9,14.9,0,0,1,14.93-7v10.65H126l-5.1-1.32Z" transform="translate(-44.58 -64.98)"/><path class="cls-35" d="M132.88,285.68,125,291.24s-.07-1.12-.26-2.64c-.4-2.87-1.29-7.18-3.2-8-2.92-1.27-35.35-13.47-23.85-17.57s29.13,9.34,29.13,9.34.92.31,2.36,3.32c.77,1.58,1.73,4.27,2.54,6.46C132.37,284.11,132.88,285.68,132.88,285.68Z" transform="translate(-44.58 -64.98)"/><polygon class="cls-34" points="151.64 229.25 152.53 228.82 155.07 231.71 153 236.13 149.47 234.71 150.29 231.19 151.64 229.25"/><path class="cls-4" d="M184.22,552.79s-2.28-.26-3.19,3.28-2.28,13.39-2.28,13.39-.54,6-1.63,7.37-2.18,9.92,5.55,11,11.11-4.17,11.11-4.17l-.28-23.88Z" transform="translate(-44.58 -64.98)"/><path class="cls-4" d="M211.21,553.87S216.08,559,216,565s-.56,14-.56,14-.44,3.27.56,4.19,0,5.45,0,5.45-8.56,8-15.75-.66c0,0-1.41-4.92-.87-8.09s2.18-17.46,2.18-17.46Z" transform="translate(-44.58 -64.98)"/><path class="cls-35" d="M223.28,445s-4.92,13.79-7,16.93-3.54,8.93-3.54,8.93l-1.91,11.75a63.58,63.58,0,0,0-.64,7.92c.08,2.64-4.73,41.15-4.73,41.15l-7.65,9.74s-3.37,6.83-2.83,9.65-.36,7.37-1.46,8.74c0,0-.18,8.92-.45,10.93s1,7.64,0,8.62-14.38.54-14.75-1.1,1.64-9.56,1.64-9.56l1.19-7.64s2.36-4.19,1.81-5.56,1-4.55,1.1-4.82,2.59-4.74,2.09-6.46S189,505.78,189,505.78L198.33,440Z" transform="translate(-44.58 -64.98)"/><path class="cls-19" d="M223.28,445s-.74,2.07-1.78,4.79c-1.62,4.31-3.95,10.19-5.24,12.14-2.09,3.19-3.55,8.92-3.55,8.92l-1.9,11.75a63.42,63.42,0,0,0-.64,7.91c0,1.05-.7,7.7-1.6,15.36-1.38,11.71-3.13,25.8-3.13,25.8l-7.66,9.74s-.39.78-.86,1.92c-1,2.23-2.31,5.86-1.95,7.76.54,2.83-.36,7.38-1.46,8.74,0,0-.18,8.93-.45,10.92s1,7.66,0,8.62-14.38.56-14.75-1.09,1.63-9.55,1.63-9.55l1.19-7.66s2.37-4.19,1.82-5.55,1-4.55,1.1-4.83,2.58-4.73,2.09-6.46c-.35-1.32,1.47-22.88,2.35-33.11.28-3.22.47-5.31.47-5.31L197,449.17l.65-4.57.66-4.63Z" transform="translate(-44.58 -64.98)"/><path class="cls-35" d="M215.08,581.93c.09,1-12.83,2.46-14.65,1.36s0-14.65,0-14.65l.86-6.19c-.92-.1-2.28-5-1.64-6.2s-.55-6.19-.55-6.19L197,543.34l-1.31-4.11c-2.12-4.69-5.17-18.1-7.12-28.1-1.21-6.28-2-11.21-1.8-11.87.46-1.64-.73-13.56-.73-13.56s-1.45-12.07-3.45-15.93c-1.33-2.53-3.92-12.07-5.54-18.18-.81-3.15-1.38-5.41-1.38-5.41s13.79-1.15,22.1-1.56c3.84-.18,6.53-.2,6.22.12s-.39,2-.38,4.38c0,6.25.91,17.24,1.83,20.19,1.28,4.1,2.59,16.38,2,17.57S207,496,207,496a40.92,40.92,0,0,1,1.59,9.89,133.87,133.87,0,0,1-.31,17.8s1.37,22.12,1,24.21,2.91,8.62,2.91,9.92.83,9.92.83,9.92S215,580.93,215.08,581.93Z" transform="translate(-44.58 -64.98)"/><path class="cls-35" d="M222.27,316l-1.57,1.72-1,1.09-6,6.34-15.39,1.73-8.17-2.19-2-.54s0-4.11.37-9c.52-6.32,1.77-14,4.74-16.09a11.86,11.86,0,0,0,3.45-4.39,25.07,25.07,0,0,0,1.49-3.68c.06-.16.1-.32.15-.47a40.1,40.1,0,0,0,1.45-6.76s2-1.09,4.69-2.35c7.13-3.33,19.44-7.92,15.15,2.35a40,40,0,0,0-1.6,4.62c-.07.23-.13.46-.18.68-1.43,5.73-.48,9.19.59,11.11h0a8,8,0,0,0,.62.94,4.66,4.66,0,0,0,1,1.05l1.78,11.25.14.93Z" transform="translate(-44.58 -64.98)"/><path class="cls-19" d="M219.63,284.32c-.81,1.94.4-1.6,0,0-3.24,2.31-10.88,8.87-15.19,8.87-2.89,0-3.76-.52-6.25-1.64a40.79,40.79,0,0,0,1.6-7.23S225.55,270.11,219.63,284.32Z" transform="translate(-44.58 -64.98)"/><path class="cls-35" d="M226.18,272.35a19.83,19.83,0,0,1-17.77,19.73,16,16,0,0,1-2.08.11,19.83,19.83,0,1,1,19.83-19.82h0Z" transform="translate(-44.58 -64.98)"/><path class="cls-19" d="M229,360.33l-2.82,7.38s-2.31.1-5.89.22c-12.07.38-38.8.86-40-2.23a7.29,7.29,0,0,1-.42-2.45c-.16-4.74,2.05-12,2.05-12s1.28-14.57,1.28-15.2-1.09-10.88-1.09-10.88l2.18-8.19,6.1-4.31s2.73,4.19,4.37,4.55a11.42,11.42,0,0,1,3.83,2.37s5.36,3.28,7.09,1.45,15.21-9.83,15.21-9.83L228,319Z" transform="translate(-44.58 -64.98)"/><path class="cls-24" d="M229,361.43l-2.82,7.38s-2.31.1-5.89.2h-.36l-5.23.14c-9.62.22-22.89.28-29.81-.73-2.59-.38-4.31-.86-4.59-1.64a6.34,6.34,0,0,1-.33-1.35,10.19,10.19,0,0,1-.09-1.1c-.16-4.74,2.05-12.07,2.05-12.07s1.28-14.57,1.28-15.2-1.09-10.84-1.09-10.84l2.18-8.19,4.19-2.94,1.91-1.34a28,28,0,0,0,2.09,2.75,5.51,5.51,0,0,0,2.28,1.8,11.59,11.59,0,0,1,3.83,2.37s5.36,3.28,7.09,1.46c1.33-1.4,9.48-6.41,13.3-8.69l1.91-1.15,1,1.06,6.14,6.78Z" transform="translate(-44.58 -64.98)"/><path class="cls-19" d="M132.88,285.68,125,291.24s-.07-1.12-.26-2.64a16.08,16.08,0,0,0,7-6.47C132.37,284.11,132.88,285.68,132.88,285.68Z" transform="translate(-44.58 -64.98)"/><path class="cls-18" d="M160.73,304.52l-1.73-.45s-2.82,3-4.46,3.37-5.1,2.64-5.1,2.64l-4,3.18s-3,.46-2.1-1.63-1.64-4.74-1.64-4.74-5.09-10.47-5.09-12.65-4.19-11.38-4.19-11.38-5.29,10.28-14.93,7c0,0,7,15.75,7.19,19.66s4.83,14.85,4.83,14.85,1.72,8.1,11.1,7.64c0,0,12.93,2.41,15.75,0s5.37-4.31,6.74-4.57a5.28,5.28,0,0,0,2.54-1.82V314.81Z" transform="translate(-44.58 -64.98)"/><path class="cls-19" d="M144.52,314.81s2.28,8.46.86,9.38Z" transform="translate(-44.58 -64.98)"/><path class="cls-19" d="M220.3,369c-12.07.39-38.8.86-40-2.21a7.34,7.34,0,0,1-.42-2.45l39.56,2.08Z" transform="translate(-44.58 -64.98)"/><path class="cls-19" d="M223.28,445s-.74,2.07-1.77,4.79c-5-.31-11.68-.63-18-.67-2.24,0-4.43,0-6.49.07a48.53,48.53,0,0,0-10.61,1.18,28.19,28.19,0,0,1-9.48,1.21c-.82-3.14-1.39-5.4-1.39-5.4s13.79-1.16,22.1-1.56l.67-4.63Z" transform="translate(-44.58 -64.98)"/><path class="cls-16" d="M233.93,411.68,232.38,415s-.21,1-.49,2.53a66.46,66.46,0,0,0-1.15,14.13c.46,7-1,17.66-1,17.66s-33.5-2.82-43.33,0-14.66,0-14.66,0,1.19-10.56-1.72-16c-2-3.74-3.4-20.34-3.45-31.25,0-5,.25-8.86.86-9.63,2-2.46,10.56-27,10.56-27l1.95.1,5.18.28,29.64,1.56,4.65.24.49,1.51Z" transform="translate(-44.58 -64.98)"/><path class="cls-34" d="M248.68,400.75l.27,2.92S234.3,398.89,235,393s0-5.17,0-5.17l11.79,1Z" transform="translate(-44.58 -64.98)"/><path class="cls-19" d="M248.68,400.75l.27,2.92S234.3,398.89,235,393s0-5.17,0-5.17l11.79,1Z" transform="translate(-44.58 -64.98)"/><path class="cls-19" d="M154.32,317.16a13.14,13.14,0,0,0,5.17,2.69,3.38,3.38,0,0,1-1.53-.72c-1.05-.75-2.05-1.56-3.06-2.35-.81-.64-1.83-1.72-2.84-2A15.16,15.16,0,0,0,154.32,317.16Z" transform="translate(-44.58 -64.98)"/><path class="cls-19" d="M154.54,321a6.36,6.36,0,0,1,1.13,1.8,7.63,7.63,0,0,1,.33,2.33,7.29,7.29,0,0,1-.41,3.3l-2.39-5.67c-.4-1-.86-1.93-1.31-2.86-.21-.4-1.57-2-1.41-2.38C150.93,316.53,154.1,320.45,154.54,321Z" transform="translate(-44.58 -64.98)"/><path class="cls-19" d="M220.18,352.41a7.68,7.68,0,0,0,4.31-2c-2.43.3-4.71,1.25-7.1,1.72a10.5,10.5,0,0,1-6.61-.6C213.5,352.9,217.23,352.94,220.18,352.41Z" transform="translate(-44.58 -64.98)"/><path class="cls-19" d="M213.34,335.75a1.68,1.68,0,0,1-1.23-.31q-2.73-1.56-5.38-3.26a32.85,32.85,0,0,1-5.26-3.64C205.08,331.81,208.44,334.56,213.34,335.75Z" transform="translate(-44.58 -64.98)"/><path class="cls-19" d="M218.39,355.06a11.77,11.77,0,0,0,2.84-.23,3.84,3.84,0,0,0,2.33-1.53,1.33,1.33,0,0,0-1,.15,16.79,16.79,0,0,1-9.13,1.1C214.91,355.18,216.81,355.05,218.39,355.06Z" transform="translate(-44.58 -64.98)"/><path class="cls-19" d="M201.14,397.32a28.7,28.7,0,0,1-5.82,1.15,35.32,35.32,0,0,1-4.6-.09l-7.46-.47-3.73-.24c-.44,0-2.24,0-1.35-.86.45-.43,2.94-.16,3.57-.18,1.25,0,2.48-.06,3.71-.07,2.47,0,4.94,0,7.41.16Q197,396.89,201.14,397.32Z" transform="translate(-44.58 -64.98)"/><path class="cls-19" d="M192.51,401c-1.26-.05-2.89.71-4.2.86a27.87,27.87,0,0,1-4.38.19,24.86,24.86,0,0,1-8.48-1.73C181.15,400.62,186.83,400.79,192.51,401Z" transform="translate(-44.58 -64.98)"/><path class="cls-19" d="M176.56,404.92a12.62,12.62,0,0,1,1.63.44c3.14.9,6.49.11,9.65-.68a5.71,5.71,0,0,1-3.66,2A17.41,17.41,0,0,1,177,407c-.75-.15-2.59-.42-3-1.19C173.46,404.64,175.87,404.8,176.56,404.92Z" transform="translate(-44.58 -64.98)"/><path class="cls-19" d="M194.19,410.79a27.2,27.2,0,0,1,2.79.72c3.53.86,7.21-.33,10.76-1.14a49.58,49.58,0,0,1,13-1.2,13,13,0,0,0-2.79.92c-1,.3-2,.58-3,.86a60.08,60.08,0,0,1-6.09,1.19,62,62,0,0,1-12.48.54c-1.91-.1-5.17.1-6.85-.86A7.6,7.6,0,0,1,194.19,410.79Z" transform="translate(-44.58 -64.98)"/><path class="cls-19" d="M195.51,298.5s.18,8.39-1.19,12.21c-.42,1.19-1.09,3.39-1.82,5.85-.8,2.74-1.67,5.8-2.34,8.17s-1.11,4-1.11,4-3.08,25.05-3.88,37v.62c0,.67-.12,1.37-.23,2.09-1.77,11.86-12,30.13-15.43,31.6a10.2,10.2,0,0,0-2.88,2c0-5,.25-8.86.86-9.63,2-2.46,10.56-27,10.56-27l1.95.1a10,10,0,0,1-.09-1.09c-.16-4.74,2.05-12.07,2.05-12.07s1.28-14.57,1.28-15.21-1.1-10.83-1.1-10.83l2.18-8.19,4.2-2.94c.52-6.32,1.77-14,4.73-16.09a11.66,11.66,0,0,0,3.45-4.39c.6.08-.48-.44-.48-.44Z" transform="translate(-44.58 -64.98)"/><path class="cls-18" d="M197.12,293.81a5.49,5.49,0,0,0-4.62.52c-2.09,1.45-6.19,1.36-7.28,1.09s-12.47-1.73-13.38-1.36-2.73-1.28-3.91.9-1.73,3.37-2.92,3.92-3.28,2.28-3,2.64-3,2.59-3,2.59l6.64,21.55s-4.31,27.31-6.37,29.67-20.69,33.05-14,38.52a134.24,134.24,0,0,0,16.65,11.2c.73.37,3.37-4.55,7-6.1s14.93-22.08,15.67-33.7,3.91-37.6,3.91-37.6,3.92-14.21,5.29-18,1.14-12.22,1.14-12.22Z" transform="translate(-44.58 -64.98)"/><path class="cls-19" d="M233.93,411.68,232.38,415s-.21,1-.49,2.53a1.41,1.41,0,0,1-.78-.34c-2.28-1.83-15.67-15.57-16.3-27.78-.47-9-.25-16.75-.1-20.2,0-1.09.09-1.73.1-1.89h0s10.34-12.57,9.19-17-3.92-28.31-3.92-28.31l-.4-3.13-.69-5.29-1.63-12.81,1.72.4a4.71,4.71,0,0,0,1,1.05l1.77,11.25,6.15,6.78,1,41.24-2.82,7.38s-2.31.1-5.9.2H220Z" transform="translate(-44.58 -64.98)"/><path class="cls-18" d="M239.67,343.58s-2.59-1-2.74,0-.63,3.18-.63,3.18.44,5.29-1.46,7.38-2.22,10.92-2.22,10.92-3.06,8.75-1.61,11.48c.53,1,1.35,6,2.17,11.91.51,3.72,1,7.81,1.5,11.54.86,6.81,1.44,12.42,1.44,12.42s-1.64,6-3.92,4.19S216.54,401,215.9,388.83c-.45-8.58-.27-16-.12-19.69.07-1.56.12-2.44.12-2.44s10.35-12.56,9.2-17-3.92-28.32-3.92-28.32l-.48-3.68-.51-4-.11-.86-1.65-12.71h0c.3.06,10.51,2.37,11.86,3.72s9.64,3.27,9.64,3.27a7.3,7.3,0,0,1,5.18,5.31c.07.25.13.52.2.8,1.09,5.28.73,5.91,1.46,6.82S239.67,343.58,239.67,343.58Z" transform="translate(-44.58 -64.98)"/><path class="cls-19" d="M234.68,400c-3.75-.72-9.25-2.45-9.13-6.25.12-3.56,4.39-4.83,7.63-5.29C233.74,392.17,234.21,396.26,234.68,400Z" transform="translate(-44.58 -64.98)"/><path class="cls-35" d="M246.22,398.12c-.15.31-.77.59-1.59.86a42.33,42.33,0,0,1-6,1s-12.66-1-12.48-6.73c.13-4.12,5.85-5.17,9.06-5.46,1.26-.11,2.14-.09,2.14-.09S246.77,396.93,246.22,398.12Z" transform="translate(-44.58 -64.98)"/><path class="cls-19" d="M246.22,398.12c-.15.31-.77.59-1.59.86-3.3-4.42-7.9-10.08-10.15-10.58l.68-.63c1.26-.11,2.14-.09,2.14-.09S246.77,396.93,246.22,398.12Z" transform="translate(-44.58 -64.98)"/><path class="cls-18" d="M243,319.55l3.73.54a64.13,64.13,0,0,0,4.47,6.83,7.47,7.47,0,0,1,1.64,4.37s5.46,8.1,7.18,9,4.38,7.1,4.38,7.1,4.31,2.82,4.31,6a52.63,52.63,0,0,0,.81,7.92c.09.45-.63,6.1-2.46,8.92s-3.64,9.1-3.54,10.2-5.11,6.89-6.56,8.74a36.29,36.29,0,0,0-3.18,5.37l-4.83,9.1s-10.2-15-13.93-15.83c0,0,4.19-4,6.28-4.74s4.1-6.74,4.19-8.1,1.91-5.92,3.82-6.74,2.91-1.64,2.09-2.91,0-3.74,0-3.74-5.37-7.1-6.1-11.2-5.64-6.83-5.64-6.83l-2.82-6.9Z" transform="translate(-44.58 -64.98)"/><path class="cls-19" d="M256.57,353.53a11.81,11.81,0,0,1,7.36-2.78c-1.73.3-3.56.67-4.81,1.87a10.61,10.61,0,0,0-1.33,1.73c-.44.62-4,5.08-4.51,4.39C252.44,357.67,255.87,354.13,256.57,353.53Z" transform="translate(-44.58 -64.98)"/><path class="cls-19" d="M248.33,349.22a3.14,3.14,0,0,0,2.59-1.84,10.5,10.5,0,0,0,.81-3.23,47.54,47.54,0,0,1,1.13-5.53,3.74,3.74,0,0,0,.18-1.15,3.33,3.33,0,0,0-.34-1.11,7.9,7.9,0,0,0-.79-1.66c-.68.77-.86,2.49-1.15,3.45-.33,1.24-.65,2.48-.95,3.72C249.66,342.53,248.39,349.22,248.33,349.22Z" transform="translate(-44.58 -64.98)"/><path class="cls-19" d="M245.11,312.47a8.1,8.1,0,0,1-1.26,1.29c-1.46,1.18-3.45,2.18-3.66,4.05a4.39,4.39,0,0,1-.21,1.8c-.48.81-1.65.75-2.59.58a4.55,4.55,0,0,1-2.18-.8c-1-.86-1.07-2.33-1.81-3.37a4.6,4.6,0,0,0-3.69-1.65c-1.4-.05-2.78.26-4.17.33a10.85,10.85,0,0,1-2.67-.18c-.3,0-.58-.11-.87-.18a10.85,10.85,0,0,1-1.82-.62c-.29-.12-.58-.26-.86-.41a11.55,11.55,0,0,1-2.58-1.79,6.36,6.36,0,0,1-2.38-4.83,28.4,28.4,0,0,1,.77-3.31c.56-3.22-1.57-6.26-3.89-8.56-.93-.91-1.91-1.81-2.83-2.74a13.62,13.62,0,0,1-3.34-4.74,14.34,14.34,0,0,1-.59-5.93,41.55,41.55,0,0,0,.18-6.11c-.69-7.24-6.9-12.79-13-15.81l-.27-.14A19.83,19.83,0,0,1,221,285.73a19.1,19.1,0,0,1-2.89,2.65c-.06.23-.13.46-.18.69-1.43,5.72-.48,9.18.59,11.1h0c.29.06,10.51,2.37,11.85,3.71s9.65,3.28,9.65,3.28A7.31,7.31,0,0,1,245.11,312.47Z" transform="translate(-44.58 -64.98)"/><path class="cls-4" d="M190,254.07c.41-.46,1-.7,1.44-1.16,1.28-1.4,0-3.68.47-5.52.51-2.06,3-2.95,5.12-2.73s4.07,1.18,6.17,1.41c3.26.38,6.41-1,9.59-1.87s7-.86,9.22,1.56,2,6.59,4.76,8.36c1.26.81,2.84.86,4.2,1.51a8.7,8.7,0,0,1,3.56,3.4,17.77,17.77,0,0,1,2.68,11.41c-.22,2.15-.86,4.25-1.1,6.41a18.73,18.73,0,0,0,.44,6.71c.58,2.26,1.82,4.64,4,5.36a6.13,6.13,0,0,1,1.51.52c1.29.79,1.12,2.69.79,4.16l-1.38,6.08c1.28,1,3.25.55,4.5,1.57a3.66,3.66,0,0,1,1,1.64,9,9,0,0,1-2.67,9.78c-1.46,1.19-3.45,2.18-3.66,4.05a4.33,4.33,0,0,1-.21,1.79c-.48.81-1.65.75-2.59.59a4.48,4.48,0,0,1-2.17-.8c-1-.86-1.07-2.33-1.81-3.37a4.6,4.6,0,0,0-3.69-1.66c-1.41,0-2.79.27-4.18.34a12.29,12.29,0,0,1-8.8-3.18,6.38,6.38,0,0,1-2.39-4.83,34,34,0,0,1,.77-3.32c.56-3.21-1.57-6.26-3.88-8.55s-5-4.42-6.17-7.48c-1.41-3.8,0-8-.42-12.07-.69-7.24-6.9-12.79-13-15.8C190.71,257.7,188.37,255.89,190,254.07Z" transform="translate(-44.58 -64.98)"/><path class="cls-19" d="M238.65,316.59c-1-.86-1.06-2.32-1.8-3.37a4.66,4.66,0,0,0-3.7-1.65c-1.4,0-2.78.27-4.17.34a12.33,12.33,0,0,1-8.8-3.14,6.39,6.39,0,0,1-2.39-4.83,33.15,33.15,0,0,1,.77-3.31c.56-3.22-1.57-6.26-3.89-8.56s-5-4.43-6.17-7.49c-1.4-3.78,0-8-.41-12.07-.69-7.24-6.9-12.79-13.05-15.81-1.44-.7-3.79-2.5-2.18-4.31.4-.46,1-.69,1.44-1.15,1.28-1.4,0-3.69.47-5.54a2.87,2.87,0,0,1,.47-1,3.94,3.94,0,0,0-3.36,2.64c-.45,1.85.81,4.14-.47,5.54-.41.45-1,.69-1.44,1.15-1.6,1.83.74,3.62,2.19,4.31,6.18,3,12.35,8.57,13,15.81.38,4-1,8.25.42,12.07,1.13,3.06,3.85,5.17,6.17,7.48s4.45,5.35,3.89,8.56a31.78,31.78,0,0,0-.78,3.31,6.43,6.43,0,0,0,2.39,4.84,12.29,12.29,0,0,0,8.8,3.18c1.4-.07,2.78-.38,4.18-.34A4.66,4.66,0,0,1,234,314.9c.74,1.05.86,2.54,1.81,3.37a4.38,4.38,0,0,0,2.17.8c.93.18,2.11.24,2.59-.58a2.08,2.08,0,0,0,.21-1.07A4.2,4.2,0,0,1,238.65,316.59Z" transform="translate(-44.58 -64.98)"/></svg>